<svg version="1.1" viewBox="0.0 0.0 605.6299212598425 604.3727034120735" fill="none" stroke="none" stroke-linecap="square" stroke-miterlimit="10" xmlns:xlink="http://www.w3.org/1999/xlink" xmlns="http://www.w3.org/2000/svg"><clipPath id="p.0"><path d="m0 0l605.62994 0l0 604.3727l-605.62994 0l0 -604.3727z" clip-rule="nonzero"/></clipPath><g clip-path="url(#p.0)"><path fill="#000000" fill-opacity="0.0" d="m0 0l605.62994 0l0 604.3727l-605.62994 0z" fill-rule="evenodd"/><path fill="#000000" fill-opacity="0.0" d="m86.2231 299.27298l115.85039 -0.60632324l0.5931854 -98.96324l198.35695 -0.61943054l0.16271973 -59.824142" fill-rule="evenodd"/><path stroke="#3c78d8" stroke-width="4.0" stroke-linejoin="round" stroke-linecap="butt" d="m86.2231 299.27298l115.85039 -0.60632324l0.5931854 -98.96324l198.35695 -0.61943054l0.09744263 -35.824234" fill-rule="evenodd"/><path fill="#3c78d8" stroke="#3c78d8" stroke-width="4.0" stroke-linecap="butt" d="m407.72797 163.27773l-6.5575256 -18.170288l-6.6562805 18.134338z" fill-rule="evenodd"/><path fill="#666666" d="m23.070866 53.56191l0 0c0 -18.676338 15.140163 -33.8165 33.8165 -33.8165l92.05204 0l0 0c8.968689 0 17.570053 3.5627995 23.91188 9.904623c6.341812 6.3418255 9.904617 14.943182 9.904617 23.911879l0 92.05205c0 18.67633 -15.140167 33.816498 -33.816498 33.816498l-92.05204 0c-18.676338 0 -33.8165 -15.140167 -33.8165 -33.816498z" fill-rule="evenodd"/><path stroke="#cccccc" stroke-width="4.0" stroke-linejoin="round" stroke-linecap="butt" stroke-dasharray="16.0,12.0" d="m23.070866 53.56191l0 0c0 -18.676338 15.140163 -33.8165 33.8165 -33.8165l92.05204 0l0 0c8.968689 0 17.570053 3.5627995 23.91188 9.904623c6.341812 6.3418255 9.904617 14.943182 9.904617 23.911879l0 92.05205c0 18.67633 -15.140167 33.816498 -33.816498 33.816498l-92.05204 0c-18.676338 0 -33.8165 -15.140167 -33.8165 -33.816498z" fill-rule="evenodd"/><path fill="#666666" d="m222.25197 252.74957l0 0c0 -18.676346 15.140167 -33.816498 33.816513 -33.816498l92.05203 0l0 0c8.968689 0 17.570038 3.56279 23.911865 9.904617c6.3418274 6.3418274 9.904633 14.943192 9.904633 23.91188l0 92.05203c0 18.67633 -15.140167 33.816498 -33.816498 33.816498l-92.05203 0c-18.676346 0 -33.816513 -15.140167 -33.816513 -33.816498z" fill-rule="evenodd"/><path stroke="#cccccc" stroke-width="4.0" stroke-linejoin="round" stroke-linecap="butt" stroke-dasharray="16.0,12.0" d="m222.25197 252.74957l0 0c0 -18.676346 15.140167 -33.816498 33.816513 -33.816498l92.05203 0l0 0c8.968689 0 17.570038 3.56279 23.911865 9.904617c6.3418274 6.3418274 9.904633 14.943192 9.904633 23.91188l0 92.05203c0 18.67633 -15.140167 33.816498 -33.816498 33.816498l-92.05203 0c-18.676346 0 -33.816513 -15.140167 -33.816513 -33.816498z" fill-rule="evenodd"/><path fill="#666666" d="m222.25197 53.56191l0 0c0 -18.676338 15.140167 -33.8165 33.816513 -33.8165l92.05203 0l0 0c8.968689 0 17.570038 3.5627995 23.911865 9.904623c6.3418274 6.3418255 9.904633 14.943182 9.904633 23.911879l0 92.05205c0 18.67633 -15.140167 33.816498 -33.816498 33.816498l-92.05203 0c-18.676346 0 -33.816513 -15.140167 -33.816513 -33.816498z" fill-rule="evenodd"/><path stroke="#cccccc" stroke-width="4.0" stroke-linejoin="round" stroke-linecap="butt" stroke-dasharray="16.0,12.0" d="m222.25197 53.56191l0 0c0 -18.676338 15.140167 -33.8165 33.816513 -33.8165l92.05203 0l0 0c8.968689 0 17.570038 3.5627995 23.911865 9.904623c6.3418274 6.3418255 9.904633 14.943182 9.904633 23.911879l0 92.05205c0 18.67633 -15.140167 33.816498 -33.816498 33.816498l-92.05203 0c-18.676346 0 -33.816513 -15.140167 -33.816513 -33.816498z" fill-rule="evenodd"/><path fill="#666666" d="m421.43307 53.56191l0 0c0 -18.676338 15.140167 -33.8165 33.816498 -33.8165l92.05206 0l0 0c8.968689 0 17.570007 3.5627995 23.911865 9.904623c6.341797 6.3418255 9.904602 14.943182 9.904602 23.911879l0 291.23312c0 18.67633 -15.140137 33.816498 -33.816467 33.816498l-92.05206 0c-18.67633 0 -33.816498 -15.140167 -33.816498 -33.816498z" fill-rule="evenodd"/><path stroke="#cccccc" stroke-width="4.0" stroke-linejoin="round" stroke-linecap="butt" stroke-dasharray="16.0,12.0" d="m421.43307 53.56191l0 0c0 -18.676338 15.140167 -33.8165 33.816498 -33.8165l92.05206 0l0 0c8.968689 0 17.570007 3.5627995 23.911865 9.904623c6.341797 6.3418255 9.904602 14.943182 9.904602 23.911879l0 291.23312c0 18.67633 -15.140137 33.816498 -33.816467 33.816498l-92.05206 0c-18.67633 0 -33.816498 -15.140167 -33.816498 -33.816498z" fill-rule="evenodd"/><path fill="#666666" d="m23.070866 331.24326l0 0c0 -7.028473 5.6977196 -12.726196 12.726212 -12.726196l134.23262 0c3.3751984 0 6.6121674 1.3407898 8.998795 3.727417c2.3866272 2.3866272 3.727417 5.623596 3.727417 8.998779l0 34.64209c0 7.028473 -5.6977234 12.726196 -12.726212 12.726196l-134.23262 0c-7.028492 0 -12.726212 -5.6977234 -12.726212 -12.726196z" fill-rule="evenodd"/><path stroke="#cccccc" stroke-width="4.0" stroke-linejoin="round" stroke-linecap="butt" stroke-dasharray="16.0,12.0" d="m23.070866 331.24326l0 0c0 -7.028473 5.6977196 -12.726196 12.726212 -12.726196l134.23262 0c3.3751984 0 6.6121674 1.3407898 8.998795 3.727417c2.3866272 2.3866272 3.727417 5.623596 3.727417 8.998779l0 34.64209c0 7.028473 -5.6977234 12.726196 -12.726212 12.726196l-134.23262 0c-7.028492 0 -12.726212 -5.6977234 -12.726212 -12.726196z" fill-rule="evenodd"/><path fill="#666666" d="m23.070866 231.6396l0 0c0 -7.0285034 5.6977196 -12.726212 12.726212 -12.726212l134.23262 0c3.3751984 0 6.6121674 1.3407898 8.998795 3.727417c2.3866272 2.3866272 3.727417 5.623581 3.727417 8.998795l0 34.642075c0 7.028473 -5.6977234 12.726196 -12.726212 12.726196l-134.23262 0c-7.028492 0 -12.726212 -5.6977234 -12.726212 -12.726196z" fill-rule="evenodd"/><path stroke="#cccccc" stroke-width="4.0" stroke-linejoin="round" stroke-linecap="butt" stroke-dasharray="16.0,12.0" d="m23.070866 231.6396l0 0c0 -7.0285034 5.6977196 -12.726212 12.726212 -12.726212l134.23262 0c3.3751984 0 6.6121674 1.3407898 8.998795 3.727417c2.3866272 2.3866272 3.727417 5.623581 3.727417 8.998795l0 34.642075c0 7.028473 -5.6977234 12.726196 -12.726212 12.726196l-134.23262 0c-7.028492 0 -12.726212 -5.6977234 -12.726212 -12.726196z" fill-rule="evenodd"/><path fill="#666666" d="m547.2202 418.12073l0 0c18.676392 0 33.81653 15.140167 33.81653 33.816498l0 92.05203l0 0c0 8.968689 -3.5628052 17.570068 -9.904602 23.911865c-6.341858 6.341858 -14.943176 9.904663 -23.911926 9.904663l-490.35123 0c-18.676338 0 -33.8165 -15.140198 -33.8165 -33.81653l0 -92.05203c0 -18.67633 15.140163 -33.816498 33.8165 -33.816498z" fill-rule="evenodd"/><path stroke="#cccccc" stroke-width="4.0" stroke-linejoin="round" stroke-linecap="butt" stroke-dasharray="16.0,12.0" d="m547.2202 418.12073l0 0c18.676392 0 33.81653 15.140167 33.81653 33.816498l0 92.05203l0 0c0 8.968689 -3.5628052 17.570068 -9.904602 23.911865c-6.341858 6.341858 -14.943176 9.904663 -23.911926 9.904663l-490.35123 0c-18.676338 0 -33.8165 -15.140198 -33.8165 -33.81653l0 -92.05203c0 -18.67633 15.140163 -33.816498 33.8165 -33.816498z" fill-rule="evenodd"/><path fill="#000000" fill-opacity="0.0" d="m32.031498 179.43045l141.76378 0l0 39.496063l-141.76378 0z" fill-rule="evenodd"/><path fill="#ffffff" d="m64.75309 200.2216l1.5 0.46875q-0.34375 1.25 -1.15625 1.859375q-0.796875 0.59375 -2.0156212 0.59375q-1.515625 0 -2.5 -1.03125q-0.984375 -1.046875 -0.984375 -2.84375q0 -1.90625 0.984375 -2.953125q0.984375 -1.0625 2.59375 -1.0625q1.3906212 0 2.2656212 0.828125q0.53125 0.5 0.78125 1.40625l-1.515625 0.375q-0.140625 -0.59375 -0.578125 -0.9375q-0.4218712 -0.34375 -1.0312462 -0.34375q-0.859375 0 -1.390625 0.609375q-0.515625 0.609375 -0.515625 1.96875q0 1.4375 0.515625 2.0625q0.515625 0.609375 1.359375 0.609375q0.609375 0 1.0468712 -0.390625q0.453125 -0.390625 0.640625 -1.21875zm2.8049774 2.796875l0 -1.46875l1.46875 0l0 1.46875l-1.46875 0zm5.93692 0l0 -7.625l2.46875 0q1.40625 0 1.828125 0.109375q0.65625 0.171875 1.09375 0.75q0.453125 0.578125 0.453125 1.484375q0 0.703125 -0.265625 1.1875q-0.25 0.46875 -0.640625 0.75q-0.390625 0.265625 -0.796875 0.359375q-0.5625 0.109375 -1.609375 0.109375l-1.0 0l0 2.875l-1.53125 0zm1.53125 -6.34375l0 2.171875l0.84375 0q0.90625 0 1.21875 -0.109375q0.3125 -0.125 0.484375 -0.375q0.171875 -0.265625 0.171875 -0.609375q0 -0.40625 -0.25 -0.671875q-0.234375 -0.28125 -0.609375 -0.34375q-0.28125 -0.0625 -1.109375 -0.0625l-0.75 0zm5.2170105 3.5q0 -0.71875 0.359375 -1.40625q0.359375 -0.6875 1.015625 -1.046875q0.671875 -0.359375 1.46875 -0.359375q1.265625 0 2.0625 0.828125q0.796875 0.8125 0.796875 2.046875q0 1.25 -0.8125 2.078125q-0.796875 0.828125 -2.03125 0.828125q-0.75 0 -1.453125 -0.34375q-0.6875 -0.34375 -1.046875 -1.0q-0.359375 -0.671875 -0.359375 -1.625zm1.5 0.078125q0 0.828125 0.390625 1.265625q0.390625 0.4375 0.96875 0.4375q0.5625 0 0.953125 -0.4375q0.390625 -0.4375 0.390625 -1.265625q0 -0.8125 -0.390625 -1.25q-0.390625 -0.4375 -0.953125 -0.4375q-0.578125 0 -0.96875 0.4375q-0.390625 0.4375 -0.390625 1.25zm5.243637 -2.765625l1.34375 0l0 0.765625q0.71875 -0.890625 1.71875 -0.890625q0.53125 0 0.921875 0.21875q0.390625 0.21875 0.640625 0.671875q0.375 -0.453125 0.796875 -0.671875q0.421875 -0.21875 0.890625 -0.21875q0.609375 0 1.03125 0.25q0.421875 0.25 0.625 0.734375q0.15625 0.34375 0.15625 1.140625l0 3.53125l-1.453125 0l0 -3.15625q0 -0.828125 -0.15625 -1.0625q-0.203125 -0.3125 -0.625 -0.3125q-0.3125 0 -0.578125 0.1875q-0.265625 0.1875 -0.390625 0.546875q-0.125 0.359375 -0.125 1.140625l0 2.65625l-1.453125 0l0 -3.03125q0 -0.796875 -0.078125 -1.03125q-0.078125 -0.234375 -0.25 -0.34375q-0.15625 -0.125 -0.4375 -0.125q-0.34375 0 -0.609375 0.1875q-0.265625 0.171875 -0.390625 0.515625q-0.109375 0.34375 -0.109375 1.140625l0 2.6875l-1.46875 0l0 -5.53125zm9.537613 0l1.375 0l0 0.8125q0.265625 -0.40625 0.703125 -0.671875q0.453125 -0.265625 1.015625 -0.265625q0.953125 0 1.625 0.765625q0.671875 0.75 0.671875 2.09375q0 1.390625 -0.671875 2.15625q-0.671875 0.765625 -1.640625 0.765625q-0.453125 0 -0.828125 -0.171875q-0.375 -0.1875 -0.78125 -0.640625l0 2.796875l-1.46875 0l0 -7.640625zm1.453125 2.671875q0 0.9375 0.359375 1.390625q0.375 0.4375 0.90625 0.4375q0.515625 0 0.84375 -0.40625q0.34375 -0.421875 0.34375 -1.34375q0 -0.875 -0.359375 -1.296875q-0.34375 -0.421875 -0.859375 -0.421875q-0.53125 0 -0.890625 0.421875q-0.34375 0.40625 -0.34375 1.21875zm8.306137 1.09375l1.453125 0.25q-0.28125 0.796875 -0.890625 1.21875q-0.609375 0.421875 -1.515625 0.421875q-1.4375 0 -2.125 -0.9375q-0.546875 -0.765625 -0.546875 -1.90625q0 -1.375 0.71875 -2.15625q0.71875 -0.78125 1.8125 -0.78125q1.234375 0 1.9375 0.828125q0.71875 0.8125 0.6875 2.484375l-3.65625 0q0.015625 0.65625 0.34375 1.015625q0.34375 0.359375 0.84375 0.359375q0.34375 0 0.578125 -0.1875q0.234375 -0.1875 0.359375 -0.609375zm0.078125 -1.46875q-0.015625 -0.640625 -0.328125 -0.96875q-0.3125 -0.328125 -0.765625 -0.328125q-0.46875 0 -0.78125 0.34375q-0.3125 0.359375 -0.3125 0.953125l2.1875 0zm6.2858734 3.234375l0 -0.828125q-0.3125 0.4375 -0.8125 0.703125q-0.484375 0.25 -1.015625 0.25q-0.5625 0 -1.015625 -0.234375q-0.4375 -0.25 -0.640625 -0.6875q-0.1875 -0.453125 -0.1875 -1.234375l0 -3.5l1.46875 0l0 2.546875q0 1.15625 0.078125 1.421875q0.078125 0.265625 0.28125 0.421875q0.21875 0.15625 0.546875 0.15625q0.375 0 0.671875 -0.203125q0.296875 -0.21875 0.40625 -0.515625q0.109375 -0.3125 0.109375 -1.484375l0 -2.34375l1.46875 0l0 5.53125l-1.359375 0zm5.8449097 0l0 -7.625l5.234375 0l0 1.28125l-3.6875 0l0 1.8125l3.1875 0l0 1.296875l-3.1875 0l0 3.234375l-1.546875 0zm7.587387 -3.84375l-1.328125 -0.234375q0.21875 -0.796875 0.765625 -1.1875q0.546875 -0.390625 1.625 -0.390625q0.9843826 0 1.4531326 0.234375q0.484375 0.234375 0.671875 0.59375q0.203125 0.359375 0.203125 1.3125l-0.015625 1.703125q0 0.71875 0.0625 1.078125q0.078125 0.34375 0.265625 0.734375l-1.4375 0q-0.0625 -0.140625 -0.140625 -0.4375q-0.046875 -0.125 -0.0625 -0.171875q-0.37500763 0.375 -0.7968826 0.5625q-0.421875 0.171875 -0.90625 0.171875q-0.859375 0 -1.359375 -0.453125q-0.484375 -0.46875 -0.484375 -1.1875q0 -0.46875 0.21875 -0.828125q0.234375 -0.359375 0.640625 -0.546875q0.40625 -0.203125 1.15625 -0.359375q1.03125 -0.1875 1.4218826 -0.359375l0 -0.140625q0 -0.421875 -0.21875763 -0.59375q-0.203125 -0.1875 -0.78125 -0.1875q-0.375 0 -0.59375 0.15625q-0.21875 0.15625 -0.359375 0.53125zm1.9531326 1.1875q-0.28125763 0.09375 -0.8906326 0.234375q-0.609375 0.125 -0.796875 0.25q-0.28125 0.203125 -0.28125 0.515625q0 0.296875 0.21875 0.53125q0.234375 0.21875 0.59375 0.21875q0.390625 0 0.75 -0.265625q0.265625 -0.1875 0.34375 -0.484375q0.06250763 -0.1875 0.06250763 -0.703125l0 -0.296875zm2.8171234 2.65625l0 -7.625l1.46875 0l0 2.75q0.671875 -0.78125 1.59375 -0.78125q1.015625 0 1.671875 0.734375q0.65625 0.734375 0.65625 2.109375q0 1.40625 -0.671875 2.171875q-0.671875 0.765625 -1.640625 0.765625q-0.46875 0 -0.9375 -0.234375q-0.453125 -0.234375 -0.78125 -0.703125l0 0.8125l-1.359375 0zm1.453125 -2.875q0 0.84375 0.265625 1.265625q0.375 0.578125 1.015625 0.578125q0.484375 0 0.8125 -0.40625q0.34375 -0.421875 0.34375 -1.3125q0 -0.9375 -0.34375 -1.359375q-0.34375 -0.421875 -0.875 -0.421875q-0.53125 0 -0.875 0.40625q-0.34375 0.40625 -0.34375 1.25zm6.524887 2.875l-1.46875 0l0 -5.53125l1.359375 0l0 0.796875q0.34375 -0.5625 0.625 -0.734375q0.28125 -0.1875 0.625 -0.1875q0.5 0 0.96875 0.28125l-0.453125 1.28125q-0.375 -0.25 -0.6875 -0.25q-0.3125 0 -0.53125 0.171875q-0.203125 0.171875 -0.328125 0.625q-0.109375 0.4375 -0.109375 1.84375l0 1.703125zm3.834488 -3.84375l-1.328125 -0.234375q0.21875 -0.796875 0.765625 -1.1875q0.546875 -0.390625 1.625 -0.390625q0.984375 0 1.453125 0.234375q0.484375 0.234375 0.671875 0.59375q0.203125 0.359375 0.203125 1.3125l-0.015625 1.703125q0 0.71875 0.0625 1.078125q0.078125 0.34375 0.265625 0.734375l-1.4375 0q-0.0625 -0.140625 -0.140625 -0.4375q-0.046875 -0.125 -0.0625 -0.171875q-0.375 0.375 -0.796875 0.5625q-0.421875 0.171875 -0.90625 0.171875q-0.859375 0 -1.359375 -0.453125q-0.484375 -0.46875 -0.484375 -1.1875q0 -0.46875 0.21875 -0.828125q0.234375 -0.359375 0.640625 -0.546875q0.40625 -0.203125 1.15625 -0.359375q1.03125 -0.1875 1.421875 -0.359375l0 -0.140625q0 -0.421875 -0.21875 -0.59375q-0.203125 -0.1875 -0.78125 -0.1875q-0.375 0 -0.59375 0.15625q-0.21875 0.15625 -0.359375 0.53125zm1.953125 1.1875q-0.28125 0.09375 -0.890625 0.234375q-0.609375 0.125 -0.796875 0.25q-0.28125 0.203125 -0.28125 0.515625q0 0.296875 0.21875 0.53125q0.234375 0.21875 0.59375 0.21875q0.390625 0 0.75 -0.265625q0.265625 -0.1875 0.34375 -0.484375q0.0625 -0.1875 0.0625 -0.703125l0 -0.296875z" fill-rule="nonzero"/><path fill="#000000" fill-opacity="0.0" d="m235.90552 179.43045l141.76376 0l0 39.496063l-141.76376 0z" fill-rule="evenodd"/><path fill="#ffffff" d="m268.6271 200.2216l1.5 0.46875q-0.34375 1.25 -1.15625 1.859375q-0.796875 0.59375 -2.015625 0.59375q-1.515625 0 -2.5 -1.03125q-0.984375 -1.046875 -0.984375 -2.84375q0 -1.90625 0.984375 -2.953125q0.984375 -1.0625 2.59375 -1.0625q1.390625 0 2.265625 0.828125q0.53125 0.5 0.78125 1.40625l-1.515625 0.375q-0.140625 -0.59375 -0.578125 -0.9375q-0.421875 -0.34375 -1.03125 -0.34375q-0.859375 0 -1.390625 0.609375q-0.515625 0.609375 -0.515625 1.96875q0 1.4375 0.515625 2.0625q0.515625 0.609375 1.359375 0.609375q0.609375 0 1.046875 -0.390625q0.453125 -0.390625 0.640625 -1.21875zm2.8049927 2.796875l0 -1.46875l1.46875 0l0 1.46875l-1.46875 0zm5.93692 0l0 -7.625l2.46875 0q1.40625 0 1.828125 0.109375q0.65625 0.171875 1.09375 0.75q0.453125 0.578125 0.453125 1.484375q0 0.703125 -0.265625 1.1875q-0.25 0.46875 -0.640625 0.75q-0.390625 0.265625 -0.796875 0.359375q-0.5625 0.109375 -1.609375 0.109375l-1.0 0l0 2.875l-1.53125 0zm1.53125 -6.34375l0 2.171875l0.84375 0q0.90625 0 1.21875 -0.109375q0.3125 -0.125 0.484375 -0.375q0.171875 -0.265625 0.171875 -0.609375q0 -0.40625 -0.25 -0.671875q-0.234375 -0.28125 -0.609375 -0.34375q-0.28125 -0.0625 -1.109375 -0.0625l-0.75 0zm5.2170105 3.5q0 -0.71875 0.359375 -1.40625q0.359375 -0.6875 1.015625 -1.046875q0.671875 -0.359375 1.46875 -0.359375q1.265625 0 2.0625 0.828125q0.796875 0.8125 0.796875 2.046875q0 1.25 -0.8125 2.078125q-0.796875 0.828125 -2.03125 0.828125q-0.75 0 -1.453125 -0.34375q-0.6875 -0.34375 -1.046875 -1.0q-0.359375 -0.671875 -0.359375 -1.625zm1.5 0.078125q0 0.828125 0.390625 1.265625q0.390625 0.4375 0.96875 0.4375q0.5625 0 0.953125 -0.4375q0.390625 -0.4375 0.390625 -1.265625q0 -0.8125 -0.390625 -1.25q-0.390625 -0.4375 -0.953125 -0.4375q-0.578125 0 -0.96875 0.4375q-0.390625 0.4375 -0.390625 1.25zm5.243622 -2.765625l1.34375 0l0 0.765625q0.71875 -0.890625 1.71875 -0.890625q0.53125 0 0.921875 0.21875q0.390625 0.21875 0.640625 0.671875q0.375 -0.453125 0.796875 -0.671875q0.421875 -0.21875 0.890625 -0.21875q0.609375 0 1.03125 0.25q0.421875 0.25 0.625 0.734375q0.15625 0.34375 0.15625 1.140625l0 3.53125l-1.453125 0l0 -3.15625q0 -0.828125 -0.15625 -1.0625q-0.203125 -0.3125 -0.625 -0.3125q-0.3125 0 -0.578125 0.1875q-0.265625 0.1875 -0.390625 0.546875q-0.125 0.359375 -0.125 1.140625l0 2.65625l-1.453125 0l0 -3.03125q0 -0.796875 -0.078125 -1.03125q-0.078125 -0.234375 -0.25 -0.34375q-0.15625 -0.125 -0.4375 -0.125q-0.34375 0 -0.609375 0.1875q-0.265625 0.171875 -0.390625 0.515625q-0.109375 0.34375 -0.109375 1.140625l0 2.6875l-1.46875 0l0 -5.53125zm9.537628 0l1.375 0l0 0.8125q0.265625 -0.40625 0.703125 -0.671875q0.453125 -0.265625 1.015625 -0.265625q0.953125 0 1.625 0.765625q0.671875 0.75 0.671875 2.09375q0 1.390625 -0.671875 2.15625q-0.671875 0.765625 -1.640625 0.765625q-0.453125 0 -0.828125 -0.171875q-0.375 -0.1875 -0.78125 -0.640625l0 2.796875l-1.46875 0l0 -7.640625zm1.453125 2.671875q0 0.9375 0.359375 1.390625q0.375 0.4375 0.90625 0.4375q0.515625 0 0.84375 -0.40625q0.34375 -0.421875 0.34375 -1.34375q0 -0.875 -0.359375 -1.296875q-0.34375 -0.421875 -0.859375 -0.421875q-0.53125 0 -0.890625 0.421875q-0.34375 0.40625 -0.34375 1.21875zm8.306122 1.09375l1.453125 0.25q-0.28125 0.796875 -0.890625 1.21875q-0.609375 0.421875 -1.515625 0.421875q-1.4375 0 -2.125 -0.9375q-0.546875 -0.765625 -0.546875 -1.90625q0 -1.375 0.71875 -2.15625q0.71875 -0.78125 1.8125 -0.78125q1.234375 0 1.9375 0.828125q0.71875 0.8125 0.6875 2.484375l-3.65625 0q0.015625 0.65625 0.34375 1.015625q0.34375 0.359375 0.84375 0.359375q0.34375 0 0.578125 -0.1875q0.234375 -0.1875 0.359375 -0.609375zm0.078125 -1.46875q-0.015625 -0.640625 -0.328125 -0.96875q-0.3125 -0.328125 -0.765625 -0.328125q-0.46875 0 -0.78125 0.34375q-0.3125 0.359375 -0.3125 0.953125l2.1875 0zm6.2858887 3.234375l0 -0.828125q-0.3125 0.4375 -0.8125 0.703125q-0.484375 0.25 -1.015625 0.25q-0.5625 0 -1.015625 -0.234375q-0.4375 -0.25 -0.640625 -0.6875q-0.1875 -0.453125 -0.1875 -1.234375l0 -3.5l1.46875 0l0 2.546875q0 1.15625 0.078125 1.421875q0.078125 0.265625 0.28125 0.421875q0.21875 0.15625 0.546875 0.15625q0.375 0 0.671875 -0.203125q0.296875 -0.21875 0.40625 -0.515625q0.109375 -0.3125 0.109375 -1.484375l0 -2.34375l1.46875 0l0 5.53125l-1.359375 0zm5.8449097 0l0 -7.625l5.234375 0l0 1.28125l-3.6875 0l0 1.8125l3.1875 0l0 1.296875l-3.1875 0l0 3.234375l-1.546875 0zm7.587372 -3.84375l-1.328125 -0.234375q0.21875 -0.796875 0.765625 -1.1875q0.546875 -0.390625 1.625 -0.390625q0.984375 0 1.453125 0.234375q0.484375 0.234375 0.671875 0.59375q0.203125 0.359375 0.203125 1.3125l-0.015625 1.703125q0 0.71875 0.0625 1.078125q0.078125 0.34375 0.265625 0.734375l-1.4375 0q-0.0625 -0.140625 -0.140625 -0.4375q-0.046875 -0.125 -0.0625 -0.171875q-0.375 0.375 -0.796875 0.5625q-0.421875 0.171875 -0.90625 0.171875q-0.859375 0 -1.359375 -0.453125q-0.484375 -0.46875 -0.484375 -1.1875q0 -0.46875 0.21875 -0.828125q0.234375 -0.359375 0.640625 -0.546875q0.40625 -0.203125 1.15625 -0.359375q1.03125 -0.1875 1.421875 -0.359375l0 -0.140625q0 -0.421875 -0.21875 -0.59375q-0.203125 -0.1875 -0.78125 -0.1875q-0.375 0 -0.59375 0.15625q-0.21875 0.15625 -0.359375 0.53125zm1.953125 1.1875q-0.28125 0.09375 -0.890625 0.234375q-0.609375 0.125 -0.796875 0.25q-0.28125 0.203125 -0.28125 0.515625q0 0.296875 0.21875 0.53125q0.234375 0.21875 0.59375 0.21875q0.390625 0 0.75 -0.265625q0.265625 -0.1875 0.34375 -0.484375q0.0625 -0.1875 0.0625 -0.703125l0 -0.296875zm2.8171387 2.65625l0 -7.625l1.46875 0l0 2.75q0.671875 -0.78125 1.59375 -0.78125q1.015625 0 1.671875 0.734375q0.65625 0.734375 0.65625 2.109375q0 1.40625 -0.671875 2.171875q-0.671875 0.765625 -1.640625 0.765625q-0.46875 0 -0.9375 -0.234375q-0.453125 -0.234375 -0.78125 -0.703125l0 0.8125l-1.359375 0zm1.453125 -2.875q0 0.84375 0.265625 1.265625q0.375 0.578125 1.015625 0.578125q0.484375 0 0.8125 -0.40625q0.34375 -0.421875 0.34375 -1.3125q0 -0.9375 -0.34375 -1.359375q-0.34375 -0.421875 -0.875 -0.421875q-0.53125 0 -0.875 0.40625q-0.34375 0.40625 -0.34375 1.25zm6.524872 2.875l-1.46875 0l0 -5.53125l1.359375 0l0 0.796875q0.34375 -0.5625 0.625 -0.734375q0.28125 -0.1875 0.625 -0.1875q0.5 0 0.96875 0.28125l-0.453125 1.28125q-0.375 -0.25 -0.6875 -0.25q-0.3125 0 -0.53125 0.171875q-0.203125 0.171875 -0.328125 0.625q-0.109375 0.4375 -0.109375 1.84375l0 1.703125zm3.8345032 -3.84375l-1.328125 -0.234375q0.21875 -0.796875 0.765625 -1.1875q0.546875 -0.390625 1.625 -0.390625q0.984375 0 1.453125 0.234375q0.484375 0.234375 0.671875 0.59375q0.203125 0.359375 0.203125 1.3125l-0.015625 1.703125q0 0.71875 0.0625 1.078125q0.078125 0.34375 0.265625 0.734375l-1.4375 0q-0.0625 -0.140625 -0.140625 -0.4375q-0.046875 -0.125 -0.0625 -0.171875q-0.375 0.375 -0.796875 0.5625q-0.421875 0.171875 -0.90625 0.171875q-0.859375 0 -1.359375 -0.453125q-0.484375 -0.46875 -0.484375 -1.1875q0 -0.46875 0.21875 -0.828125q0.234375 -0.359375 0.640625 -0.546875q0.40625 -0.203125 1.15625 -0.359375q1.03125 -0.1875 1.421875 -0.359375l0 -0.140625q0 -0.421875 -0.21875 -0.59375q-0.203125 -0.1875 -0.78125 -0.1875q-0.375 0 -0.59375 0.15625q-0.21875 0.15625 -0.359375 0.53125zm1.953125 1.1875q-0.28125 0.09375 -0.890625 0.234375q-0.609375 0.125 -0.796875 0.25q-0.28125 0.203125 -0.28125 0.515625q0 0.296875 0.21875 0.53125q0.234375 0.21875 0.59375 0.21875q0.390625 0 0.75 -0.265625q0.265625 -0.1875 0.34375 -0.484375q0.0625 -0.1875 0.0625 -0.703125l0 -0.296875z" fill-rule="nonzero"/><path fill="#000000" fill-opacity="0.0" d="m421.43307 28.706038l0 141.76378l-39.496063 0l0 -141.76378z" fill-rule="evenodd"/><path fill="#ffffff" d="m397.84503 79.10849l0 -1.671875l1.734375 -0.671875l0 -3.046875l-1.734375 -0.625l0 -1.640625l7.625 2.96875l0 1.625l-7.625 3.0625zm3.015625 -2.84375l2.828125 -1.046875l-2.828125 -1.03125l0 2.078125zm-3.015625 4.768524l5.53125 -2.21875l0 1.53125l-2.828125 1.046875l-0.9375 0.296875q0.359375 0.109375 0.46875 0.140625q0.234375 0.078125 0.46875 0.15625l2.828125 1.0625l0 1.5l-5.53125 -2.203125l0 -1.3125zm0 3.6192017l1.46875 0l0 1.46875l-1.46875 0l0 -1.46875zm0 7.87442l7.625 -2.71875l0 1.671875l-5.640625 1.921875l5.640625 1.875l0 1.625l-7.625 -2.734375l0 -1.640625zm1.765625 7.7690887l-0.25 1.453125q-0.796875 -0.28125 -1.21875 -0.890625q-0.421875 -0.609375 -0.421875 -1.515625q0 -1.4375 0.9375 -2.125q0.765625 -0.546875 1.90625 -0.546875q1.375 0 2.15625 0.71875q0.78125 0.71875 0.78125 1.8125q0 1.234375 -0.828125 1.9375q-0.8125 0.71875 -2.484375 0.6875l0 -3.65625q-0.65625 0.015625 -1.015625 0.34375q-0.359375 0.34375 -0.359375 0.84375q0 0.34375 0.1875 0.578125q0.1875 0.234375 0.609375 0.359375zm1.46875 0.078125q0.640625 -0.015625 0.96875 -0.328125q0.328125 -0.3125 0.328125 -0.765625q0 -0.46875 -0.34375 -0.78125q-0.359375 -0.3125 -0.953125 -0.3125l0 2.1875zm-3.234375 4.0514984l0 -1.46875l5.53125 0l0 1.359375l-0.796875 0q0.5625 0.34375 0.734375 0.625q0.1875 0.28125 0.1875 0.625q0 0.5 -0.28125 0.96875l-1.28125 -0.453125q0.25 -0.375 0.25 -0.6875q0 -0.3125 -0.171875 -0.53125q-0.171875 -0.203125 -0.625 -0.328125q-0.4375 -0.109375 -1.84375 -0.109375l-1.703125 0zm5.53125 5.271988l-1.171875 0l0 -1.0l-2.21875 0q-0.6875 0 -0.796875 0.03125q-0.109375 0.03125 -0.1875 0.125q-0.0625 0.109375 -0.0625 0.25q0 0.203125 0.140625 0.59375l-1.140625 0.125q-0.21875 -0.515625 -0.21875 -1.15625q0 -0.390625 0.125 -0.71875q0.140625 -0.3125 0.34375 -0.46875q0.21875 -0.140625 0.578125 -0.203125q0.25 -0.046875 1.03125 -0.046875l2.40625 0l0 -0.671875l1.171875 0l0 0.671875l1.09375 0l0.859375 1.46875l-1.953125 0l0 1.0zm0.75 1.0173645l1.34375 0l0 1.46875l-1.34375 0l0 -1.46875zm-6.28125 0l5.53125 0l0 1.46875l-5.53125 0l0 -1.46875zm3.890625 7.7731476l-0.265625 -1.4375q0.4375 -0.078125 0.65625 -0.34375q0.21875 -0.25 0.21875 -0.65625q0 -0.546875 -0.375 -0.875q-0.375 -0.3125 -1.265625 -0.3125q-0.984375 0 -1.390625 0.328125q-0.40625 0.328125 -0.40625 0.875q0 0.421875 0.234375 0.6875q0.25 0.265625 0.828125 0.375l-0.25 1.4375q-0.984375 -0.21875 -1.5 -0.859375q-0.5 -0.640625 -0.5 -1.703125q0 -1.203125 0.765625 -1.9375q0.765625 -0.71875 2.109375 -0.71875q1.375 0 2.140625 0.71875q0.765625 0.734375 0.765625 1.96875q0 1.0 -0.4375 1.59375q-0.4375 0.609375 -1.328125 0.859375zm-0.046875 2.2077484l0.234375 -1.328125q0.796875 0.21875 1.1875 0.765625q0.390625 0.546875 0.390625 1.625q0 0.984375 -0.234375 1.453125q-0.234375 0.484375 -0.59375 0.671875q-0.359375 0.203125 -1.3125 0.203125l-1.703125 -0.015625q-0.71875 0 -1.078125 0.0625q-0.34375 0.078125 -0.734375 0.265625l0 -1.4375q0.140625 -0.0625 0.4375 -0.140625q0.125 -0.046875 0.171875 -0.0625q-0.375 -0.375 -0.5625 -0.796875q-0.171875 -0.421875 -0.171875 -0.90625q0 -0.859375 0.453125 -1.359375q0.46875 -0.484375 1.1875 -0.484375q0.46875 0 0.828125 0.21875q0.359375 0.234375 0.546875 0.640625q0.203125 0.40625 0.359375 1.15625q0.1875 1.03125 0.359375 1.421875l0.140625 0q0.421875 0 0.59375 -0.21875q0.1875 -0.203125 0.1875 -0.78125q0 -0.375 -0.15625 -0.59375q-0.15625 -0.21875 -0.53125 -0.359375zm-1.1875 1.953125q-0.09375 -0.28125 -0.234375 -0.890625q-0.125 -0.609375 -0.25 -0.796875q-0.203125 -0.28125 -0.515625 -0.28125q-0.296875 0 -0.53125 0.21875q-0.21875 0.234375 -0.21875 0.59375q0 0.390625 0.265625 0.75q0.1875 0.265625 0.484375 0.34375q0.1875 0.0625 0.703125 0.0625l0.296875 0zm-2.65625 2.8796234l7.625 0l0 1.46875l-7.625 0l0 -1.46875z" fill-rule="nonzero"/><path fill="#000000" fill-opacity="0.0" d="m421.43307 227.8937l0 141.76376l-39.496063 0l0 -141.76376z" fill-rule="evenodd"/><path fill="#ffffff" d="m397.84503 278.29614l0 -1.671875l1.734375 -0.671875l0 -3.046875l-1.734375 -0.625l0 -1.640625l7.625 2.96875l0 1.625l-7.625 3.0625zm3.015625 -2.84375l2.828125 -1.046875l-2.828125 -1.03125l0 2.078125zm-3.015625 4.768524l5.53125 -2.21875l0 1.53125l-2.828125 1.046875l-0.9375 0.296875q0.359375 0.109375 0.46875 0.140625q0.234375 0.078125 0.46875 0.15625l2.828125 1.0625l0 1.5l-5.53125 -2.203125l0 -1.3125zm0 3.6192017l1.46875 0l0 1.46875l-1.46875 0l0 -1.46875zm0 7.87442l7.625 -2.71875l0 1.671875l-5.640625 1.921875l5.640625 1.875l0 1.625l-7.625 -2.734375l0 -1.640625zm1.765625 7.769104l-0.25 1.453125q-0.796875 -0.28125 -1.21875 -0.890625q-0.421875 -0.609375 -0.421875 -1.515625q0 -1.4375 0.9375 -2.125q0.765625 -0.546875 1.90625 -0.546875q1.375 0 2.15625 0.71875q0.78125 0.71875 0.78125 1.8125q0 1.234375 -0.828125 1.9375q-0.8125 0.71875 -2.484375 0.6875l0 -3.65625q-0.65625 0.015625 -1.015625 0.34375q-0.359375 0.34375 -0.359375 0.84375q0 0.34375 0.1875 0.578125q0.1875 0.234375 0.609375 0.359375zm1.46875 0.078125q0.640625 -0.015625 0.96875 -0.328125q0.328125 -0.3125 0.328125 -0.765625q0 -0.46875 -0.34375 -0.78125q-0.359375 -0.3125 -0.953125 -0.3125l0 2.1875zm-3.234375 4.051483l0 -1.46875l5.53125 0l0 1.359375l-0.796875 0q0.5625 0.34375 0.734375 0.625q0.1875 0.28125 0.1875 0.625q0 0.5 -0.28125 0.96875l-1.28125 -0.453125q0.25 -0.375 0.25 -0.6875q0 -0.3125 -0.171875 -0.53125q-0.171875 -0.203125 -0.625 -0.328125q-0.4375 -0.109375 -1.84375 -0.109375l-1.703125 0zm5.53125 5.272003l-1.171875 0l0 -1.0l-2.21875 0q-0.6875 0 -0.796875 0.03125q-0.109375 0.03125 -0.1875 0.125q-0.0625 0.109375 -0.0625 0.25q0 0.203125 0.140625 0.59375l-1.140625 0.125q-0.21875 -0.515625 -0.21875 -1.15625q0 -0.390625 0.125 -0.71875q0.140625 -0.3125 0.34375 -0.46875q0.21875 -0.140625 0.578125 -0.203125q0.25 -0.046875 1.03125 -0.046875l2.40625 0l0 -0.671875l1.171875 0l0 0.671875l1.09375 0l0.859375 1.46875l-1.953125 0l0 1.0zm0.75 1.0173645l1.34375 0l0 1.46875l-1.34375 0l0 -1.46875zm-6.28125 0l5.53125 0l0 1.46875l-5.53125 0l0 -1.46875zm3.890625 7.7731323l-0.265625 -1.4375q0.4375 -0.078125 0.65625 -0.34375q0.21875 -0.25 0.21875 -0.65625q0 -0.546875 -0.375 -0.875q-0.375 -0.3125 -1.265625 -0.3125q-0.984375 0 -1.390625 0.328125q-0.40625 0.328125 -0.40625 0.875q0 0.421875 0.234375 0.6875q0.25 0.265625 0.828125 0.375l-0.25 1.4375q-0.984375 -0.21875 -1.5 -0.859375q-0.5 -0.640625 -0.5 -1.703125q0 -1.203125 0.765625 -1.9375q0.765625 -0.71875 2.109375 -0.71875q1.375 0 2.140625 0.71875q0.765625 0.734375 0.765625 1.96875q0 1.0 -0.4375 1.59375q-0.4375 0.609375 -1.328125 0.859375zm-0.046875 2.2077637l0.234375 -1.328125q0.796875 0.21875 1.1875 0.765625q0.390625 0.546875 0.390625 1.625q0 0.984375 -0.234375 1.453125q-0.234375 0.484375 -0.59375 0.671875q-0.359375 0.203125 -1.3125 0.203125l-1.703125 -0.015625q-0.71875 0 -1.078125 0.0625q-0.34375 0.078125 -0.734375 0.265625l0 -1.4375q0.140625 -0.0625 0.4375 -0.140625q0.125 -0.046875 0.171875 -0.0625q-0.375 -0.375 -0.5625 -0.796875q-0.171875 -0.421875 -0.171875 -0.90625q0 -0.859375 0.453125 -1.359375q0.46875 -0.484375 1.1875 -0.484375q0.46875 0 0.828125 0.21875q0.359375 0.234375 0.546875 0.640625q0.203125 0.40625 0.359375 1.15625q0.1875 1.03125 0.359375 1.421875l0.140625 0q0.421875 0 0.59375 -0.21875q0.1875 -0.203125 0.1875 -0.78125q0 -0.375 -0.15625 -0.59375q-0.15625 -0.21875 -0.53125 -0.359375zm-1.1875 1.953125q-0.09375 -0.28125 -0.234375 -0.890625q-0.125 -0.609375 -0.25 -0.796875q-0.203125 -0.28125 -0.515625 -0.28125q-0.296875 0 -0.53125 0.21875q-0.21875 0.234375 -0.21875 0.59375q0 0.390625 0.265625 0.75q0.1875 0.265625 0.484375 0.34375q0.1875 0.0625 0.703125 0.0625l0.296875 0zm-2.65625 2.8796082l7.625 0l0 1.46875l-7.625 0l0 -1.46875z" fill-rule="nonzero"/><path fill="#000000" fill-opacity="0.0" d="m32.031498 279.02625l141.76378 0l0 39.496063l-141.76378 0z" fill-rule="evenodd"/><path fill="#ffffff" d="m44.765263 302.6143l0 -7.625l2.46875 0q1.40625 0 1.828125 0.109375q0.65625 0.171875 1.09375 0.75q0.453125 0.578125 0.453125 1.484375q0 0.703125 -0.265625 1.1875q-0.25 0.46875 -0.640625 0.75q-0.390625 0.265625 -0.796875 0.359375q-0.5625 0.109375 -1.609375 0.109375l-1.0 0l0 2.875l-1.53125 0zm1.53125 -6.34375l0 2.171875l0.84375 0q0.90625 0 1.21875 -0.109375q0.3125 -0.125 0.484375 -0.375q0.171875 -0.265625 0.171875 -0.609375q0 -0.40625 -0.25 -0.671875q-0.234375 -0.28125 -0.609375 -0.34375q-0.28125 -0.0625 -1.109375 -0.0625l-0.75 0zm8.0920105 0.8125l0 1.171875l-1.0 0l0 2.21875q0 0.6875 0.03125 0.796875q0.03125 0.109375 0.125 0.1875q0.109375 0.0625 0.25 0.0625q0.203125 0 0.59375 -0.140625l0.125 1.140625q-0.515625 0.21875 -1.15625 0.21875q-0.390625 0 -0.71875 -0.125q-0.3125 -0.140625 -0.46875 -0.34375q-0.140625 -0.21875 -0.203125 -0.578125q-0.046875 -0.25 -0.046875 -1.03125l0 -2.40625l-0.671875 0l0 -1.171875l0.671875 0l0 -1.09375l1.46875 -0.859375l0 1.953125l1.0 0zm0.8767395 5.890625l1.671875 0.203125q0.046875 0.296875 0.203125 0.40625q0.203125 0.15625 0.640625 0.15625q0.578125 0 0.859375 -0.171875q0.203125 -0.109375 0.296875 -0.375q0.0625 -0.171875 0.0625 -0.671875l0 -0.796875q-0.65625 0.890625 -1.65625 0.890625q-1.109375 0 -1.75 -0.9375q-0.515625 -0.75 -0.515625 -1.859375q0 -1.390625 0.671875 -2.125q0.671875 -0.734375 1.65625 -0.734375q1.03125 0 1.6875 0.90625l0 -0.78125l1.375 0l0 4.96875q0 0.96875 -0.171875 1.453125q-0.15625 0.484375 -0.453125 0.765625q-0.28125 0.28125 -0.765625 0.4375q-0.484375 0.15625 -1.234375 0.15625q-1.40625 0 -2.0 -0.484375q-0.578125 -0.484375 -0.578125 -1.21875q0 -0.078125 0 -0.1875zm1.3125 -3.234375q0 0.875 0.34375 1.28125q0.34375 0.40625 0.828125 0.40625q0.546875 0 0.90625 -0.40625q0.375 -0.421875 0.375 -1.25q0 -0.859375 -0.359375 -1.265625q-0.34375 -0.421875 -0.890625 -0.421875q-0.515625 0 -0.859375 0.40625q-0.34375 0.40625 -0.34375 1.25zm8.540508 1.109375l1.453125 0.25q-0.28125 0.796875 -0.890625 1.21875q-0.609375 0.421875 -1.515625 0.421875q-1.4374962 0 -2.1249962 -0.9375q-0.546875 -0.765625 -0.546875 -1.90625q0 -1.375 0.71875 -2.15625q0.71875 -0.78125 1.8124962 -0.78125q1.234375 0 1.9375 0.828125q0.71875 0.8125 0.6875 2.484375l-3.6562462 0q0.015625 0.65625 0.34375 1.015625q0.34375 0.359375 0.8437462 0.359375q0.34375 0 0.578125 -0.1875q0.234375 -0.1875 0.359375 -0.609375zm0.078125 -1.46875q-0.015625 -0.640625 -0.328125 -0.96875q-0.3125 -0.328125 -0.765625 -0.328125q-0.4687462 0 -0.7812462 0.34375q-0.3125 0.359375 -0.3125 0.953125l2.1874962 0zm2.6452484 3.234375l0 -1.46875l1.46875 0l0 1.46875l-1.46875 0zm10.983795 0l-1.359375 0l0 -0.8125q-0.328125 0.46875 -0.796875 0.703125q-0.453125 0.234375 -0.921875 0.234375q-0.953125 0 -1.640625 -0.765625q-0.671875 -0.765625 -0.671875 -2.140625q0 -1.40625 0.65625 -2.140625q0.671875 -0.734375 1.671875 -0.734375q0.921875 0 1.609375 0.78125l0 -2.75l1.453125 0l0 7.625zm-3.890625 -2.875q0 0.875 0.234375 1.265625q0.359375 0.578125 0.984375 0.578125q0.515625 0 0.859375 -0.421875q0.359375 -0.4375 0.359375 -1.28125q0 -0.953125 -0.34375 -1.375q-0.34375 -0.421875 -0.875 -0.421875q-0.515625 0 -0.875 0.421875q-0.34375 0.40625 -0.34375 1.234375zm8.540512 1.109375l1.453125 0.25q-0.28125 0.796875 -0.890625 1.21875q-0.609375 0.421875 -1.515625 0.421875q-1.4375 0 -2.125 -0.9375q-0.546875 -0.765625 -0.546875 -1.90625q0 -1.375 0.71875 -2.15625q0.71875 -0.78125 1.8125 -0.78125q1.234375 0 1.9375 0.828125q0.71875 0.8125 0.6875 2.484375l-3.65625 0q0.015625 0.65625 0.34375 1.015625q0.34375 0.359375 0.84375 0.359375q0.34375 0 0.578125 -0.1875q0.234375 -0.1875 0.359375 -0.609375zm0.078125 -1.46875q-0.015625 -0.640625 -0.328125 -0.96875q-0.3125 -0.328125 -0.765625 -0.328125q-0.46875 0 -0.78125 0.34375q-0.3125 0.359375 -0.3125 0.953125l2.1875 0zm5.605896 3.234375l0 -7.625l1.46875 0l0 7.625l-1.46875 0zm4.0543976 -3.84375l-1.328125 -0.234375q0.21875 -0.796875 0.765625 -1.1875q0.546875 -0.390625 1.625 -0.390625q0.984375 0 1.453125 0.234375q0.484375 0.234375 0.671875 0.59375q0.203125 0.359375 0.203125 1.3125l-0.015625 1.703125q0 0.71875 0.0625 1.078125q0.078125 0.34375 0.265625 0.734375l-1.4375 0q-0.0625 -0.140625 -0.140625 -0.4375q-0.046875 -0.125 -0.0625 -0.171875q-0.375 0.375 -0.796875 0.5625q-0.421875 0.171875 -0.90625 0.171875q-0.859375 0 -1.359375 -0.453125q-0.484375 -0.46875 -0.484375 -1.1875q0 -0.46875 0.21875 -0.828125q0.234375 -0.359375 0.640625 -0.546875q0.40625 -0.203125 1.15625 -0.359375q1.03125 -0.1875 1.421875 -0.359375l0 -0.140625q0 -0.421875 -0.21875 -0.59375q-0.203125 -0.1875 -0.78125 -0.1875q-0.375 0 -0.59375 0.15625q-0.21875 0.15625 -0.359375 0.53125zm1.953125 1.1875q-0.28125 0.09375 -0.890625 0.234375q-0.609375 0.125 -0.796875 0.25q-0.28125 0.203125 -0.28125 0.515625q0 0.296875 0.21875 0.53125q0.234375 0.21875 0.59375 0.21875q0.390625 0 0.75 -0.265625q0.265625 -0.1875 0.34375 -0.484375q0.0625 -0.1875 0.0625 -0.703125l0 -0.296875zm5.840271 -4.96875l2.8125 0q0.953125 0 1.453125 0.140625q0.671875 0.203125 1.15625 0.703125q0.484375 0.5 0.734375 1.234375q0.25 0.734375 0.25 1.8125q0 0.9375 -0.234375 1.609375q-0.296875 0.84375 -0.828125 1.359375q-0.390625 0.390625 -1.078125 0.609375q-0.515625 0.15625 -1.359375 0.15625l-2.90625 0l0 -7.625zm1.546875 1.28125l0 5.0625l1.140625 0q0.65625 0 0.9375 -0.078125q0.375 -0.09375 0.625 -0.3125q0.25 -0.234375 0.40625 -0.734375q0.15625 -0.515625 0.15625 -1.40625q0 -0.875 -0.15625 -1.34375q-0.15625 -0.484375 -0.4375 -0.75q-0.28125 -0.265625 -0.71875 -0.359375q-0.328125 -0.078125 -1.265625 -0.078125l-0.6875 0zm7.5549774 6.34375l-1.46875 0l0 -5.53125l1.359375 0l0 0.796875q0.34375 -0.5625 0.625 -0.734375q0.28125 -0.1875 0.625 -0.1875q0.5 0 0.96875 0.28125l-0.453125 1.28125q-0.375 -0.25 -0.6875 -0.25q-0.3125 0 -0.53125 0.171875q-0.203125 0.171875 -0.328125 0.625q-0.109375 0.4375 -0.109375 1.84375l0 1.703125zm3.834488 -3.84375l-1.328125 -0.234375q0.21875 -0.796875 0.765625 -1.1875q0.546875 -0.390625 1.625 -0.390625q0.984375 0 1.453125 0.234375q0.484375 0.234375 0.671875 0.59375q0.203125 0.359375 0.203125 1.3125l-0.015625 1.703125q0 0.71875 0.0625 1.078125q0.078125 0.34375 0.265625 0.734375l-1.4375 0q-0.0625 -0.140625 -0.140625 -0.4375q-0.046875 -0.125 -0.0625 -0.171875q-0.375 0.375 -0.796875 0.5625q-0.421875 0.171875 -0.90625 0.171875q-0.859375 0 -1.359375 -0.453125q-0.484375 -0.46875 -0.484375 -1.1875q0 -0.46875 0.21875 -0.828125q0.234375 -0.359375 0.640625 -0.546875q0.40625 -0.203125 1.15625 -0.359375q1.03125 -0.1875 1.421875 -0.359375l0 -0.140625q0 -0.421875 -0.21875 -0.59375q-0.203125 -0.1875 -0.78125 -0.1875q-0.375 0 -0.59375 0.15625q-0.21875 0.15625 -0.359375 0.53125zm1.953125 1.1875q-0.28125 0.09375 -0.890625 0.234375q-0.609375 0.125 -0.796875 0.25q-0.28125 0.203125 -0.28125 0.515625q0 0.296875 0.21875 0.53125q0.234375 0.21875 0.59375 0.21875q0.390625 0 0.75 -0.265625q0.265625 -0.1875 0.34375 -0.484375q0.0625 -0.1875 0.0625 -0.703125l0 -0.296875zm2.8796234 2.65625l0 -1.46875l1.46875 0l0 1.46875l-1.46875 0zm5.93692 0l0 -7.625l3.234375 0q1.234375 0 1.78125 0.203125q0.5625 0.203125 0.890625 0.734375q0.328125 0.515625 0.328125 1.203125q0 0.859375 -0.5 1.421875q-0.5 0.546875 -1.515625 0.703125q0.5 0.28125 0.828125 0.640625q0.328125 0.34375 0.875 1.234375l0.9375 1.484375l-1.84375 0l-1.109375 -1.65625q-0.59375 -0.890625 -0.8125 -1.125q-0.21875 -0.234375 -0.46875 -0.3125q-0.25 -0.09375 -0.765625 -0.09375l-0.3125 0l0 3.1875l-1.546875 0zm1.546875 -4.40625l1.125 0q1.109375 0 1.390625 -0.09375q0.28125 -0.09375 0.4375 -0.3125q0.15625 -0.234375 0.15625 -0.578125q0 -0.390625 -0.21875 -0.625q-0.203125 -0.234375 -0.578125 -0.296875q-0.1875 -0.03125 -1.125 -0.03125l-1.1875 0l0 1.9375zm9.336227 2.640625l1.453125 0.25q-0.28125 0.796875 -0.890625 1.21875q-0.609375 0.421875 -1.515625 0.421875q-1.4375 0 -2.125 -0.9375q-0.546875 -0.765625 -0.546875 -1.90625q0 -1.375 0.71875 -2.15625q0.71875 -0.78125 1.8125 -0.78125q1.234375 0 1.9375 0.828125q0.71875 0.8125 0.6875 2.484375l-3.65625 0q0.015625 0.65625 0.34375 1.015625q0.34375 0.359375 0.84375 0.359375q0.34375 0 0.578125 -0.1875q0.234375 -0.1875 0.359375 -0.609375zm0.078125 -1.46875q-0.015625 -0.640625 -0.328125 -0.96875q-0.3125 -0.328125 -0.765625 -0.328125q-0.46875 0 -0.78125 0.34375q-0.3125 0.359375 -0.3125 0.953125l2.1875 0zm2.5358734 -2.296875l1.34375 0l0 0.765625q0.71875 -0.890625 1.71875 -0.890625q0.53125 0 0.921875 0.21875q0.390625 0.21875 0.640625 0.671875q0.375 -0.453125 0.796875 -0.671875q0.421875 -0.21875 0.890625 -0.21875q0.609375 0 1.03125 0.25q0.421875 0.25 0.625 0.734375q0.15625 0.34375 0.15625 1.140625l0 3.53125l-1.453125 0l0 -3.15625q0 -0.828125 -0.15625 -1.0625q-0.203125 -0.3125 -0.625 -0.3125q-0.3125 0 -0.578125 0.1875q-0.265625 0.1875 -0.390625 0.546875q-0.125 0.359375 -0.125 1.140625l0 2.65625l-1.453125 0l0 -3.03125q0 -0.796875 -0.078125 -1.03125q-0.078125 -0.234375 -0.25 -0.34375q-0.15625 -0.125 -0.4375 -0.125q-0.34375 0 -0.609375 0.1875q-0.265625 0.171875 -0.390625 0.515625q-0.109375 0.34375 -0.109375 1.140625l0 2.6875l-1.46875 0l0 -5.53125zm12.787613 3.765625l1.453125 0.25q-0.28125 0.796875 -0.890625 1.21875q-0.609375 0.421875 -1.515625 0.421875q-1.4375 0 -2.125 -0.9375q-0.546875 -0.765625 -0.546875 -1.90625q0 -1.375 0.71875 -2.15625q0.71875 -0.78125 1.8125 -0.78125q1.234375 0 1.9375 0.828125q0.71875 0.8125 0.6875 2.484375l-3.65625 0q0.015625 0.65625 0.34375 1.015625q0.34375 0.359375 0.84375 0.359375q0.34375 0 0.578125 -0.1875q0.234375 -0.1875 0.359375 -0.609375zm0.078125 -1.46875q-0.015625 -0.640625 -0.328125 -0.96875q-0.3125 -0.328125 -0.765625 -0.328125q-0.46875 0 -0.78125 0.34375q-0.3125 0.359375 -0.3125 0.953125l2.1875 0zm2.6452484 -3.046875l0 -1.34375l1.46875 0l0 1.34375l-1.46875 0zm0 6.28125l0 -5.53125l1.46875 0l0 5.53125l-1.46875 0zm2.4450226 -1.578125l1.46875 -0.21875q0.09375 0.421875 0.375 0.640625q0.296875 0.21875 0.796875 0.21875q0.578125 0 0.859375 -0.203125q0.1875 -0.140625 0.1875 -0.390625q0 -0.171875 -0.09375 -0.28125q-0.109375 -0.09375 -0.5 -0.1875q-1.765625 -0.390625 -2.234375 -0.703125q-0.65625 -0.453125 -0.65625 -1.25q0 -0.71875 0.5625 -1.203125q0.578125 -0.5 1.765625 -0.5q1.125 0 1.671875 0.375q0.5625 0.375 0.765625 1.09375l-1.375 0.25q-0.09375 -0.3125 -0.34375 -0.484375q-0.234375 -0.171875 -0.703125 -0.171875q-0.5625 0 -0.8125 0.15625q-0.171875 0.109375 -0.171875 0.296875q0 0.15625 0.140625 0.265625q0.203125 0.140625 1.359375 0.40625q1.171875 0.265625 1.640625 0.65625q0.453125 0.390625 0.453125 1.078125q0 0.765625 -0.640625 1.3125q-0.625 0.546875 -1.875 0.546875q-1.125 0 -1.78125 -0.453125q-0.65625 -0.46875 -0.859375 -1.25z" fill-rule="nonzero"/><path fill="#000000" fill-opacity="0.0" d="m222.25197 28.706038l0 141.76378l-39.496063 0l0 -141.76378z" fill-rule="evenodd"/><path fill="#ffffff" d="m201.46082 70.01039l-0.46875 1.5q-1.25 -0.34375 -1.859375 -1.15625q-0.59375 -0.796875 -0.59375 -2.015625q0 -1.515625 1.03125 -2.5q1.046875 -0.984375 2.84375 -0.984375q1.90625 0 2.953125 0.984375q1.0625 0.984375 1.0625 2.59375q0 1.390625 -0.828125 2.265625q-0.5 0.53125 -1.40625 0.78125l-0.375 -1.515625q0.59375 -0.140625 0.9375 -0.578125q0.34375 -0.421875 0.34375 -1.03125q0 -0.859375 -0.609375 -1.390625q-0.609375 -0.515625 -1.96875 -0.515625q-1.4375 0 -2.0625 0.515625q-0.609375 0.515625 -0.609375 1.359375q0 0.609375 0.390625 1.046875q0.390625 0.453125 1.21875 0.640625zm-2.796875 2.8049774l1.46875 0l0 1.46875l-1.46875 0l0 -1.46875zm0 10.983795l0 -1.359375l0.8125 0q-0.46875 -0.328125 -0.703125 -0.796875q-0.234375 -0.453125 -0.234375 -0.921875q0 -0.953125 0.765625 -1.640625q0.765625 -0.671875 2.140625 -0.671875q1.40625 0 2.140625 0.65625q0.734375 0.671875 0.734375 1.671875q0 0.921875 -0.78125 1.609375l2.75 0l0 1.453125l-7.625 0zm2.875 -3.890625q-0.875 0 -1.265625 0.234375q-0.578125 0.359375 -0.578125 0.984375q0 0.515625 0.421875 0.859375q0.4375 0.359375 1.28125 0.359375q0.953125 0 1.375 -0.34375q0.421875 -0.34375 0.421875 -0.875q0 -0.515625 -0.421875 -0.875q-0.40625 -0.34375 -1.234375 -0.34375zm-1.109375 8.540512l-0.25 1.453125q-0.796875 -0.28125 -1.21875 -0.890625q-0.421875 -0.609375 -0.421875 -1.515625q0 -1.4375 0.9375 -2.125q0.765625 -0.546875 1.90625 -0.546875q1.375 0 2.15625 0.71875q0.78125 0.71875 0.78125 1.8125q0 1.234375 -0.828125 1.9375q-0.8125 0.71875 -2.484375 0.6875l0 -3.65625q-0.65625 0.015625 -1.015625 0.34375q-0.359375 0.34375 -0.359375 0.84375q0 0.34375 0.1875 0.578125q0.1875 0.234375 0.609375 0.359375zm1.46875 0.078125q0.640625 -0.015625 0.96875 -0.328125q0.328125 -0.3125 0.328125 -0.765625q0 -0.46875 -0.34375 -0.78125q-0.359375 -0.3125 -0.953125 -0.3125l0 2.1875zm-3.234375 2.6452484l7.625 0l0 1.46875l-7.625 0l0 -1.46875zm7.625 5.93692l0 3.046875q0 0.90625 -0.078125 1.34375q-0.0625 0.453125 -0.3125 0.796875q-0.234375 0.359375 -0.640625 0.59375q-0.390625 0.234375 -0.890625 0.234375q-0.53125 0 -0.984375 -0.296875q-0.4375 -0.28125 -0.671875 -0.78125q-0.203125 0.703125 -0.6875 1.078125q-0.484375 0.375 -1.140625 0.375q-0.53125 0 -1.03125 -0.25q-0.484375 -0.234375 -0.78125 -0.65625q-0.28125 -0.421875 -0.359375 -1.03125q-0.03125 -0.390625 -0.046875 -1.859375l0 -2.59375l7.625 0zm-1.265625 1.546875l-1.765625 0l0 1.0q0 0.90625 0.03125 1.125q0.046875 0.390625 0.265625 0.609375q0.234375 0.234375 0.59375 0.234375q0.359375 0 0.578125 -0.203125q0.21875 -0.1875 0.265625 -0.578125q0.03125 -0.21875 0.03125 -1.3125l0 -0.875zm-3.03125 0l-2.046875 0l0 1.421875q0 0.828125 0.046875 1.046875q0.0625 0.34375 0.296875 0.5625q0.25 0.21875 0.65625 0.21875q0.34375 0 0.578125 -0.171875q0.25 -0.15625 0.359375 -0.484375q0.109375 -0.3125 0.109375 -1.359375l0 -1.234375zm0.515625 7.2268524l0.234375 -1.328125q0.796875 0.21875 1.1875 0.765625q0.390625 0.546875 0.390625 1.625q0 0.984375 -0.234375 1.453125q-0.234375 0.484375 -0.59375 0.671875q-0.359375 0.203125 -1.3125 0.203125l-1.703125 -0.015625q-0.71875 0 -1.078125 0.0625q-0.34375 0.078125 -0.734375 0.265625l0 -1.4375q0.140625 -0.0625 0.4375 -0.140625q0.125 -0.046875 0.171875 -0.0625q-0.375 -0.375 -0.5625 -0.796875q-0.171875 -0.421875 -0.171875 -0.90625q0 -0.859375 0.453125 -1.359375q0.46875 -0.484375 1.1875 -0.484375q0.46875 0 0.828125 0.21875q0.359375 0.234375 0.546875 0.640625q0.203125 0.40625 0.359375 1.15625q0.1875 1.03125 0.359375 1.421875l0.140625 0q0.421875 0 0.59375 -0.21875q0.1875 -0.203125 0.1875 -0.78125q0 -0.375 -0.15625 -0.59375q-0.15625 -0.21875 -0.53125 -0.359375zm-1.1875 1.953125q-0.09375 -0.28125 -0.234375 -0.890625q-0.125 -0.609375 -0.25 -0.796875q-0.203125 -0.28125 -0.515625 -0.28125q-0.296875 0 -0.53125 0.21875q-0.21875 0.234375 -0.21875 0.59375q0 0.390625 0.265625 0.75q0.1875 0.265625 0.484375 0.34375q0.1875 0.0625 0.703125 0.0625l0.296875 0zm3.625 2.8796234l1.34375 0l0 1.46875l-1.34375 0l0 -1.46875zm-6.28125 0l5.53125 0l0 1.46875l-5.53125 0l0 -1.46875zm0 2.2575226l2.84375 2.0l2.6875 -1.921875l0 1.796875l-1.53125 0.96875l1.53125 1.03125l0 1.71875l-2.625 -1.875l-2.90625 2.046875l0 -1.796875l1.71875 -1.125l-1.71875 -1.125l0 -1.71875zm3.84375 7.7233734l0.234375 -1.328125q0.796875 0.21875 1.1875 0.765625q0.390625 0.546875 0.390625 1.625q0 0.984375 -0.234375 1.453125q-0.234375 0.484375 -0.59375 0.671875q-0.359375 0.203125 -1.3125 0.203125l-1.703125 -0.015625q-0.71875 0 -1.078125 0.0625q-0.34375 0.078125 -0.734375 0.265625l0 -1.4375q0.140625 -0.0625 0.4375 -0.140625q0.125 -0.046875 0.171875 -0.0625q-0.375 -0.375 -0.5625 -0.796875q-0.171875 -0.421875 -0.171875 -0.90625q0 -0.859375 0.453125 -1.359375q0.46875 -0.484375 1.1875 -0.484375q0.46875 0 0.828125 0.21875q0.359375 0.234375 0.546875 0.640625q0.203125 0.40625 0.359375 1.15625q0.1875 1.03125 0.359375 1.421875l0.140625 0q0.421875 0 0.59375 -0.21875q0.1875 -0.203125 0.1875 -0.78125q0 -0.375 -0.15625 -0.59375q-0.15625 -0.21875 -0.53125 -0.359375zm-1.1875 1.953125q-0.09375 -0.28125 -0.234375 -0.890625q-0.125 -0.609375 -0.25 -0.796875q-0.203125 -0.28125 -0.515625 -0.28125q-0.296875 0 -0.53125 0.21875q-0.21875 0.234375 -0.21875 0.59375q0 0.390625 0.265625 0.75q0.1875 0.265625 0.484375 0.34375q0.1875 0.0625 0.703125 0.0625l0.296875 0zm-2.65625 7.9108734l0 -1.46875l2.8125 0q0.90625 0 1.15625 -0.09375q0.265625 -0.09375 0.40625 -0.3125q0.15625 -0.203125 0.15625 -0.5q0 -0.375 -0.21875 -0.6875q-0.203125 -0.296875 -0.546875 -0.40625q-0.34375 -0.109375 -1.265625 -0.109375l-2.5 0l0 -1.46875l5.53125 0l0 1.359375l-0.8125 0q0.9375 0.71875 0.9375 1.828125q0 0.484375 -0.1875 0.875q-0.171875 0.40625 -0.4375 0.609375q-0.265625 0.203125 -0.609375 0.28125q-0.34375 0.09375 -0.984375 0.09375l-3.4375 0zm5.53125 4.009262l-1.171875 0l0 -1.0l-2.21875 0q-0.6875 0 -0.796875 0.03125q-0.109375 0.03125 -0.1875 0.125q-0.0625 0.109375 -0.0625 0.25q0 0.203125 0.140625 0.59375l-1.140625 0.125q-0.21875 -0.515625 -0.21875 -1.15625q0 -0.390625 0.125 -0.71875q0.140625 -0.3125 0.34375 -0.46875q0.21875 -0.140625 0.578125 -0.203125q0.25 -0.046875 1.03125 -0.046875l2.40625 0l0 -0.671875l1.171875 0l0 0.671875l1.09375 0l0.859375 1.46875l-1.953125 0l0 1.0z" fill-rule="nonzero"/><path fill="#000000" fill-opacity="0.0" d="m222.25197 227.8937l0 141.76376l-39.496063 0l0 -141.76376z" fill-rule="evenodd"/><path fill="#ffffff" d="m201.46082 269.19806l-0.46875 1.5q-1.25 -0.34375 -1.859375 -1.15625q-0.59375 -0.796875 -0.59375 -2.015625q0 -1.515625 1.03125 -2.5q1.046875 -0.984375 2.84375 -0.984375q1.90625 0 2.953125 0.984375q1.0625 0.984375 1.0625 2.59375q0 1.390625 -0.828125 2.265625q-0.5 0.53125 -1.40625 0.78125l-0.375 -1.515625q0.59375 -0.140625 0.9375 -0.578125q0.34375 -0.421875 0.34375 -1.03125q0 -0.859375 -0.609375 -1.390625q-0.609375 -0.515625 -1.96875 -0.515625q-1.4375 0 -2.0625 0.515625q-0.609375 0.515625 -0.609375 1.359375q0 0.609375 0.390625 1.046875q0.390625 0.453125 1.21875 0.640625zm-2.796875 2.8049622l1.46875 0l0 1.46875l-1.46875 0l0 -1.46875zm0 10.983795l0 -1.359375l0.8125 0q-0.46875 -0.328125 -0.703125 -0.796875q-0.234375 -0.453125 -0.234375 -0.921875q0 -0.953125 0.765625 -1.640625q0.765625 -0.671875 2.140625 -0.671875q1.40625 0 2.140625 0.65625q0.734375 0.671875 0.734375 1.671875q0 0.921875 -0.78125 1.609375l2.75 0l0 1.453125l-7.625 0zm2.875 -3.890625q-0.875 0 -1.265625 0.234375q-0.578125 0.359375 -0.578125 0.984375q0 0.515625 0.421875 0.859375q0.4375 0.359375 1.28125 0.359375q0.953125 0 1.375 -0.34375q0.421875 -0.34375 0.421875 -0.875q0 -0.515625 -0.421875 -0.875q-0.40625 -0.34375 -1.234375 -0.34375zm-1.109375 8.540527l-0.25 1.453125q-0.796875 -0.28125 -1.21875 -0.890625q-0.421875 -0.609375 -0.421875 -1.515625q0 -1.4375 0.9375 -2.125q0.765625 -0.546875 1.90625 -0.546875q1.375 0 2.15625 0.71875q0.78125 0.71875 0.78125 1.8125q0 1.234375 -0.828125 1.9375q-0.8125 0.71875 -2.484375 0.6875l0 -3.65625q-0.65625 0.015625 -1.015625 0.34375q-0.359375 0.34375 -0.359375 0.84375q0 0.34375 0.1875 0.578125q0.1875 0.234375 0.609375 0.359375zm1.46875 0.078125q0.640625 -0.015625 0.96875 -0.328125q0.328125 -0.3125 0.328125 -0.765625q0 -0.46875 -0.34375 -0.78125q-0.359375 -0.3125 -0.953125 -0.3125l0 2.1875zm-3.234375 2.6452332l7.625 0l0 1.46875l-7.625 0l0 -1.46875zm7.625 5.93692l0 3.046875q0 0.90625 -0.078125 1.34375q-0.0625 0.453125 -0.3125 0.796875q-0.234375 0.359375 -0.640625 0.59375q-0.390625 0.234375 -0.890625 0.234375q-0.53125 0 -0.984375 -0.296875q-0.4375 -0.28125 -0.671875 -0.78125q-0.203125 0.703125 -0.6875 1.078125q-0.484375 0.375 -1.140625 0.375q-0.53125 0 -1.03125 -0.25q-0.484375 -0.234375 -0.78125 -0.65625q-0.28125 -0.421875 -0.359375 -1.03125q-0.03125 -0.390625 -0.046875 -1.859375l0 -2.59375l7.625 0zm-1.265625 1.546875l-1.765625 0l0 1.0q0 0.90625 0.03125 1.125q0.046875 0.390625 0.265625 0.609375q0.234375 0.234375 0.59375 0.234375q0.359375 0 0.578125 -0.203125q0.21875 -0.1875 0.265625 -0.578125q0.03125 -0.21875 0.03125 -1.3125l0 -0.875zm-3.03125 0l-2.046875 0l0 1.421875q0 0.828125 0.046875 1.046875q0.0625 0.34375 0.296875 0.5625q0.25 0.21875 0.65625 0.21875q0.34375 0 0.578125 -0.171875q0.25 -0.15625 0.359375 -0.484375q0.109375 -0.3125 0.109375 -1.359375l0 -1.234375zm0.515625 7.2268677l0.234375 -1.328125q0.796875 0.21875 1.1875 0.765625q0.390625 0.546875 0.390625 1.625q0 0.984375 -0.234375 1.453125q-0.234375 0.484375 -0.59375 0.671875q-0.359375 0.203125 -1.3125 0.203125l-1.703125 -0.015625q-0.71875 0 -1.078125 0.0625q-0.34375 0.078125 -0.734375 0.265625l0 -1.4375q0.140625 -0.0625 0.4375 -0.140625q0.125 -0.046875 0.171875 -0.0625q-0.375 -0.375 -0.5625 -0.796875q-0.171875 -0.421875 -0.171875 -0.90625q0 -0.859375 0.453125 -1.359375q0.46875 -0.484375 1.1875 -0.484375q0.46875 0 0.828125 0.21875q0.359375 0.234375 0.546875 0.640625q0.203125 0.40625 0.359375 1.15625q0.1875 1.03125 0.359375 1.421875l0.140625 0q0.421875 0 0.59375 -0.21875q0.1875 -0.203125 0.1875 -0.78125q0 -0.375 -0.15625 -0.59375q-0.15625 -0.21875 -0.53125 -0.359375zm-1.1875 1.953125q-0.09375 -0.28125 -0.234375 -0.890625q-0.125 -0.609375 -0.25 -0.796875q-0.203125 -0.28125 -0.515625 -0.28125q-0.296875 0 -0.53125 0.21875q-0.21875 0.234375 -0.21875 0.59375q0 0.390625 0.265625 0.75q0.1875 0.265625 0.484375 0.34375q0.1875 0.0625 0.703125 0.0625l0.296875 0zm3.625 2.8796082l1.34375 0l0 1.46875l-1.34375 0l0 -1.46875zm-6.28125 0l5.53125 0l0 1.46875l-5.53125 0l0 -1.46875zm0 2.2575378l2.84375 2.0l2.6875 -1.921875l0 1.796875l-1.53125 0.96875l1.53125 1.03125l0 1.71875l-2.625 -1.875l-2.90625 2.046875l0 -1.796875l1.71875 -1.125l-1.71875 -1.125l0 -1.71875zm3.84375 7.723358l0.234375 -1.328125q0.796875 0.21875 1.1875 0.765625q0.390625 0.546875 0.390625 1.625q0 0.984375 -0.234375 1.453125q-0.234375 0.484375 -0.59375 0.671875q-0.359375 0.203125 -1.3125 0.203125l-1.703125 -0.015625q-0.71875 0 -1.078125 0.0625q-0.34375 0.078125 -0.734375 0.265625l0 -1.4375q0.140625 -0.0625 0.4375 -0.140625q0.125 -0.046875 0.171875 -0.0625q-0.375 -0.375 -0.5625 -0.796875q-0.171875 -0.421875 -0.171875 -0.90625q0 -0.859375 0.453125 -1.359375q0.46875 -0.484375 1.1875 -0.484375q0.46875 0 0.828125 0.21875q0.359375 0.234375 0.546875 0.640625q0.203125 0.40625 0.359375 1.15625q0.1875 1.03125 0.359375 1.421875l0.140625 0q0.421875 0 0.59375 -0.21875q0.1875 -0.203125 0.1875 -0.78125q0 -0.375 -0.15625 -0.59375q-0.15625 -0.21875 -0.53125 -0.359375zm-1.1875 1.953125q-0.09375 -0.28125 -0.234375 -0.890625q-0.125 -0.609375 -0.25 -0.796875q-0.203125 -0.28125 -0.515625 -0.28125q-0.296875 0 -0.53125 0.21875q-0.21875 0.234375 -0.21875 0.59375q0 0.390625 0.265625 0.75q0.1875 0.265625 0.484375 0.34375q0.1875 0.0625 0.703125 0.0625l0.296875 0zm-2.65625 7.9108887l0 -1.46875l2.8125 0q0.90625 0 1.15625 -0.09375q0.265625 -0.09375 0.40625 -0.3125q0.15625 -0.203125 0.15625 -0.5q0 -0.375 -0.21875 -0.6875q-0.203125 -0.296875 -0.546875 -0.40625q-0.34375 -0.109375 -1.265625 -0.109375l-2.5 0l0 -1.46875l5.53125 0l0 1.359375l-0.8125 0q0.9375 0.71875 0.9375 1.828125q0 0.484375 -0.1875 0.875q-0.171875 0.40625 -0.4375 0.609375q-0.265625 0.203125 -0.609375 0.28125q-0.34375 0.09375 -0.984375 0.09375l-3.4375 0zm5.53125 4.009247l-1.171875 0l0 -1.0l-2.21875 0q-0.6875 0 -0.796875 0.03125q-0.109375 0.03125 -0.1875 0.125q-0.0625 0.109375 -0.0625 0.25q0 0.203125 0.140625 0.59375l-1.140625 0.125q-0.21875 -0.515625 -0.21875 -1.15625q0 -0.390625 0.125 -0.71875q0.140625 -0.3125 0.34375 -0.46875q0.21875 -0.140625 0.578125 -0.203125q0.25 -0.046875 1.03125 -0.046875l2.40625 0l0 -0.671875l1.171875 0l0 0.671875l1.09375 0l0.859375 1.46875l-1.953125 0l0 1.0z" fill-rule="nonzero"/><path fill="#000000" fill-opacity="0.0" d="m32.031498 378.62204l141.76378 0l0 39.496063l-141.76378 0z" fill-rule="evenodd"/><path fill="#ffffff" d="m73.56992 402.21008l-1.671875 0l-0.671875 -1.734375l-3.046875 0l-0.625 1.734375l-1.640625 0l2.96875 -7.625l1.625 0l3.0625 7.625zm-2.84375 -3.015625l-1.046875 -2.828125l-1.03125 2.828125l2.078125 0zm4.768524 3.015625l-2.21875 -5.53125l1.53125 0l1.046875 2.828125l0.296875 0.9375q0.109375 -0.359375 0.140625 -0.46875q0.078125 -0.234375 0.15625 -0.46875l1.0625 -2.828125l1.5 0l-2.203125 5.53125l-1.3125 0zm3.6192017 0l0 -1.46875l1.46875 0l0 1.46875l-1.46875 0zm5.93692 0l0 -7.625l1.546875 0l0 3.0l3.015625 0l0 -3.0l1.53125 0l0 7.625l-1.53125 0l0 -3.328125l-3.015625 0l0 3.328125l-1.546875 0zm7.3362274 -2.84375q0 -0.71875 0.359375 -1.40625q0.359375 -0.6875 1.015625 -1.046875q0.671875 -0.359375 1.46875 -0.359375q1.265625 0 2.0625 0.828125q0.796875 0.8125 0.796875 2.046875q0 1.25 -0.8125 2.078125q-0.796875 0.828125 -2.03125 0.828125q-0.75 0 -1.453125 -0.34375q-0.6875 -0.34375 -1.046875 -1.0q-0.359375 -0.671875 -0.359375 -1.625zm1.5 0.078125q0 0.828125 0.390625 1.265625q0.390625 0.4375 0.96875 0.4375q0.5625 0 0.953125 -0.4375q0.390625 -0.4375 0.390625 -1.265625q0 -0.8125 -0.390625 -1.25q-0.390625 -0.4375 -0.953125 -0.4375q-0.578125 0 -0.96875 0.4375q-0.390625 0.4375 -0.390625 1.25zm6.759262 2.765625l-1.46875 0l0 -5.53125l1.359375 0l0 0.796875q0.34375 -0.5625 0.625 -0.734375q0.28125 -0.1875 0.625 -0.1875q0.5 0 0.96875 0.28125l-0.453125 1.28125q-0.375 -0.25 -0.6875 -0.25q-0.3125 0 -0.53125 0.171875q-0.203125 0.171875 -0.328125 0.625q-0.109375 0.4375 -0.109375 1.84375l0 1.703125zm2.740738 -6.28125l0 -1.34375l1.46875 0l0 1.34375l-1.46875 0zm0 6.28125l0 -5.53125l1.46875 0l0 5.53125l-1.46875 0zm5.4918976 -5.53125l0 1.171875l-1.0 0l0 2.21875q0 0.6875 0.03125 0.796875q0.03125 0.109375 0.125 0.1875q0.109375 0.0625 0.25 0.0625q0.203125 0 0.59375 -0.140625l0.125 1.140625q-0.515625 0.21875 -1.15625 0.21875q-0.390625 0 -0.71875 -0.125q-0.3125 -0.140625 -0.46875 -0.34375q-0.140625 -0.21875 -0.203125 -0.578125q-0.046875 -0.25 -0.046875 -1.03125l0 -2.40625l-0.671875 0l0 -1.171875l0.671875 0l0 -1.09375l1.46875 -0.859375l0 1.953125l1.0 0zm0.4236145 5.53125l0 -1.140625l2.078125 -2.375q0.5 -0.578125 0.75 -0.828125q-0.25 0.015625 -0.671875 0.015625l-1.953125 0.015625l0 -1.21875l4.578125 0l0 1.046875l-2.125 2.421875l-0.734375 0.8125q0.609375 -0.03125 0.75 -0.03125l2.265625 0l0 1.28125l-4.9375 0zm5.578125 -2.84375q0 -0.71875 0.359375 -1.40625q0.359375 -0.6875 1.015625 -1.046875q0.671875 -0.359375 1.46875 -0.359375q1.265625 0 2.0625 0.828125q0.796875 0.8125 0.796875 2.046875q0 1.25 -0.8125 2.078125q-0.796875 0.828125 -2.03125 0.828125q-0.75 0 -1.453125 -0.34375q-0.6875 -0.34375 -1.046875 -1.0q-0.359375 -0.671875 -0.359375 -1.625zm1.5 0.078125q0 0.828125 0.390625 1.265625q0.390625 0.4375 0.96875 0.4375q0.5625 0 0.953125 -0.4375q0.390625 -0.4375 0.390625 -1.265625q0 -0.8125 -0.390625 -1.25q-0.390625 -0.4375 -0.953125 -0.4375q-0.578125 0 -0.96875 0.4375q-0.390625 0.4375 -0.390625 1.25zm10.384262 2.765625l-1.46875 0l0 -2.8125q0 -0.90625 -0.09375 -1.15625q-0.09375 -0.265625 -0.3125 -0.40625q-0.203125 -0.15625 -0.5 -0.15625q-0.375 0 -0.6875 0.21875q-0.296875 0.203125 -0.40625 0.546875q-0.109375 0.34375 -0.109375 1.265625l0 2.5l-1.46875 0l0 -5.53125l1.359375 0l0 0.8125q0.71875 -0.9375 1.828125 -0.9375q0.484375 0 0.875 0.1875q0.40625 0.171875 0.609375 0.4375q0.203125 0.265625 0.28125 0.609375q0.09375 0.34375 0.09375 0.984375l0 3.4375zm4.0092697 -5.53125l0 1.171875l-1.0 0l0 2.21875q0 0.6875 0.03125 0.796875q0.03125 0.109375 0.125 0.1875q0.109375 0.0625 0.25 0.0625q0.203125 0 0.59375 -0.140625l0.125 1.140625q-0.515625 0.21875 -1.15625 0.21875q-0.390625 0 -0.71875 -0.125q-0.3125 -0.140625 -0.46875 -0.34375q-0.140625 -0.21875 -0.203125 -0.578125q-0.046875 -0.25 -0.046875 -1.03125l0 -2.40625l-0.6718826 0l0 -1.171875l0.6718826 0l0 -1.09375l1.46875 -0.859375l0 1.953125l1.0 0zm2.1111145 1.6875l-1.328125 -0.234375q0.21875 -0.796875 0.765625 -1.1875q0.546875 -0.390625 1.625 -0.390625q0.984375 0 1.453125 0.234375q0.484375 0.234375 0.671875 0.59375q0.203125 0.359375 0.203125 1.3125l-0.015625 1.703125q0 0.71875 0.0625 1.078125q0.078125 0.34375 0.265625 0.734375l-1.4375 0q-0.0625 -0.140625 -0.140625 -0.4375q-0.046875 -0.125 -0.0625 -0.171875q-0.375 0.375 -0.796875 0.5625q-0.421875 0.171875 -0.90625 0.171875q-0.859375 0 -1.359375 -0.453125q-0.484375 -0.46875 -0.484375 -1.1875q0 -0.46875 0.21875 -0.828125q0.234375 -0.359375 0.640625 -0.546875q0.40625 -0.203125 1.15625 -0.359375q1.03125 -0.1875 1.421875 -0.359375l0 -0.140625q0 -0.421875 -0.21875 -0.59375q-0.203125 -0.1875 -0.78125 -0.1875q-0.375 0 -0.59375 0.15625q-0.21875 0.15625 -0.359375 0.53125zm1.953125 1.1875q-0.28125 0.09375 -0.890625 0.234375q-0.609375 0.125 -0.796875 0.25q-0.28125 0.203125 -0.28125 0.515625q0 0.296875 0.21875 0.53125q0.234375 0.21875 0.59375 0.21875q0.390625 0 0.75 -0.265625q0.265625 -0.1875 0.34375 -0.484375q0.0625 -0.1875 0.0625 -0.703125l0 -0.296875zm2.8796234 2.65625l0 -7.625l1.46875 0l0 7.625l-1.46875 0z" fill-rule="nonzero"/><path fill="#000000" fill-opacity="0.0" d="m231.2126 378.6273l141.76378 0l0 39.496063l-141.76378 0z" fill-rule="evenodd"/><path fill="#ffffff" d="m272.75104 402.21533l-1.671875 0l-0.671875 -1.734375l-3.046875 0l-0.625 1.734375l-1.640625 0l2.96875 -7.625l1.625 0l3.0625 7.625zm-2.84375 -3.015625l-1.046875 -2.828125l-1.03125 2.828125l2.078125 0zm4.768524 3.015625l-2.21875 -5.53125l1.53125 0l1.046875 2.828125l0.296875 0.9375q0.109375 -0.359375 0.140625 -0.46875q0.078125 -0.234375 0.15625 -0.46875l1.0625 -2.828125l1.5 0l-2.203125 5.53125l-1.3125 0zm3.6192017 0l0 -1.46875l1.46875 0l0 1.46875l-1.46875 0zm5.93692 0l0 -7.625l1.546875 0l0 3.0l3.015625 0l0 -3.0l1.53125 0l0 7.625l-1.53125 0l0 -3.328125l-3.015625 0l0 3.328125l-1.546875 0zm7.336212 -2.84375q0 -0.71875 0.359375 -1.40625q0.359375 -0.6875 1.015625 -1.046875q0.671875 -0.359375 1.46875 -0.359375q1.265625 0 2.0625 0.828125q0.796875 0.8125 0.796875 2.046875q0 1.25 -0.8125 2.078125q-0.796875 0.828125 -2.03125 0.828125q-0.75 0 -1.453125 -0.34375q-0.6875 -0.34375 -1.046875 -1.0q-0.359375 -0.671875 -0.359375 -1.625zm1.5 0.078125q0 0.828125 0.390625 1.265625q0.390625 0.4375 0.96875 0.4375q0.5625 0 0.953125 -0.4375q0.390625 -0.4375 0.390625 -1.265625q0 -0.8125 -0.390625 -1.25q-0.390625 -0.4375 -0.953125 -0.4375q-0.578125 0 -0.96875 0.4375q-0.390625 0.4375 -0.390625 1.25zm6.7592773 2.765625l-1.46875 0l0 -5.53125l1.359375 0l0 0.796875q0.34375 -0.5625 0.625 -0.734375q0.28125 -0.1875 0.625 -0.1875q0.5 0 0.96875 0.28125l-0.453125 1.28125q-0.375 -0.25 -0.6875 -0.25q-0.3125 0 -0.53125 0.171875q-0.203125 0.171875 -0.328125 0.625q-0.109375 0.4375 -0.109375 1.84375l0 1.703125zm2.7407227 -6.28125l0 -1.34375l1.46875 0l0 1.34375l-1.46875 0zm0 6.28125l0 -5.53125l1.46875 0l0 5.53125l-1.46875 0zm5.491913 -5.53125l0 1.171875l-1.0 0l0 2.21875q0 0.6875 0.03125 0.796875q0.03125 0.109375 0.125 0.1875q0.109375 0.0625 0.25 0.0625q0.203125 0 0.59375 -0.140625l0.125 1.140625q-0.515625 0.21875 -1.15625 0.21875q-0.390625 0 -0.71875 -0.125q-0.3125 -0.140625 -0.46875 -0.34375q-0.140625 -0.21875 -0.203125 -0.578125q-0.046875 -0.25 -0.046875 -1.03125l0 -2.40625l-0.671875 0l0 -1.171875l0.671875 0l0 -1.09375l1.46875 -0.859375l0 1.953125l1.0 0zm0.4236145 5.53125l0 -1.140625l2.078125 -2.375q0.5 -0.578125 0.75 -0.828125q-0.25 0.015625 -0.671875 0.015625l-1.953125 0.015625l0 -1.21875l4.578125 0l0 1.046875l-2.125 2.421875l-0.734375 0.8125q0.609375 -0.03125 0.75 -0.03125l2.265625 0l0 1.28125l-4.9375 0zm5.578125 -2.84375q0 -0.71875 0.359375 -1.40625q0.359375 -0.6875 1.015625 -1.046875q0.671875 -0.359375 1.46875 -0.359375q1.265625 0 2.0625 0.828125q0.796875 0.8125 0.796875 2.046875q0 1.25 -0.8125 2.078125q-0.796875 0.828125 -2.03125 0.828125q-0.75 0 -1.453125 -0.34375q-0.6875 -0.34375 -1.046875 -1.0q-0.359375 -0.671875 -0.359375 -1.625zm1.5 0.078125q0 0.828125 0.390625 1.265625q0.390625 0.4375 0.96875 0.4375q0.5625 0 0.953125 -0.4375q0.390625 -0.4375 0.390625 -1.265625q0 -0.8125 -0.390625 -1.25q-0.390625 -0.4375 -0.953125 -0.4375q-0.578125 0 -0.96875 0.4375q-0.390625 0.4375 -0.390625 1.25zm10.384247 2.765625l-1.46875 0l0 -2.8125q0 -0.90625 -0.09375 -1.15625q-0.09375 -0.265625 -0.3125 -0.40625q-0.203125 -0.15625 -0.5 -0.15625q-0.375 0 -0.6875 0.21875q-0.296875 0.203125 -0.40625 0.546875q-0.109375 0.34375 -0.109375 1.265625l0 2.5l-1.46875 0l0 -5.53125l1.359375 0l0 0.8125q0.71875 -0.9375 1.828125 -0.9375q0.484375 0 0.875 0.1875q0.40625 0.171875 0.609375 0.4375q0.203125 0.265625 0.28125 0.609375q0.09375 0.34375 0.09375 0.984375l0 3.4375zm4.0092773 -5.53125l0 1.171875l-1.0 0l0 2.21875q0 0.6875 0.03125 0.796875q0.03125 0.109375 0.125 0.1875q0.109375 0.0625 0.25 0.0625q0.203125 0 0.59375 -0.140625l0.125 1.140625q-0.515625 0.21875 -1.15625 0.21875q-0.390625 0 -0.71875 -0.125q-0.3125 -0.140625 -0.46875 -0.34375q-0.140625 -0.21875 -0.203125 -0.578125q-0.046875 -0.25 -0.046875 -1.03125l0 -2.40625l-0.671875 0l0 -1.171875l0.671875 0l0 -1.09375l1.46875 -0.859375l0 1.953125l1.0 0zm2.1111145 1.6875l-1.328125 -0.234375q0.21875 -0.796875 0.765625 -1.1875q0.546875 -0.390625 1.625 -0.390625q0.984375 0 1.453125 0.234375q0.484375 0.234375 0.671875 0.59375q0.203125 0.359375 0.203125 1.3125l-0.015625 1.703125q0 0.71875 0.0625 1.078125q0.078125 0.34375 0.265625 0.734375l-1.4375 0q-0.0625 -0.140625 -0.140625 -0.4375q-0.046875 -0.125 -0.0625 -0.171875q-0.375 0.375 -0.796875 0.5625q-0.421875 0.171875 -0.90625 0.171875q-0.859375 0 -1.359375 -0.453125q-0.484375 -0.46875 -0.484375 -1.1875q0 -0.46875 0.21875 -0.828125q0.234375 -0.359375 0.640625 -0.546875q0.40625 -0.203125 1.15625 -0.359375q1.03125 -0.1875 1.421875 -0.359375l0 -0.140625q0 -0.421875 -0.21875 -0.59375q-0.203125 -0.1875 -0.78125 -0.1875q-0.375 0 -0.59375 0.15625q-0.21875 0.15625 -0.359375 0.53125zm1.953125 1.1875q-0.28125 0.09375 -0.890625 0.234375q-0.609375 0.125 -0.796875 0.25q-0.28125 0.203125 -0.28125 0.515625q0 0.296875 0.21875 0.53125q0.234375 0.21875 0.59375 0.21875q0.390625 0 0.75 -0.265625q0.265625 -0.1875 0.34375 -0.484375q0.0625 -0.1875 0.0625 -0.703125l0 -0.296875zm2.8796082 2.65625l0 -7.625l1.46875 0l0 7.625l-1.46875 0z" fill-rule="nonzero"/><path fill="#000000" fill-opacity="0.0" d="m436.44095 378.6273l141.76376 0l0 39.496063l-141.76376 0z" fill-rule="evenodd"/><path fill="#ffffff" d="m477.97937 402.21533l-1.671875 0l-0.671875 -1.734375l-3.046875 0l-0.625 1.734375l-1.640625 0l2.96875 -7.625l1.625 0l3.0625 7.625zm-2.84375 -3.015625l-1.046875 -2.828125l-1.03125 2.828125l2.078125 0zm4.768524 3.015625l-2.21875 -5.53125l1.53125 0l1.046875 2.828125l0.296875 0.9375q0.109375 -0.359375 0.140625 -0.46875q0.078125 -0.234375 0.15625 -0.46875l1.0625 -2.828125l1.5 0l-2.203125 5.53125l-1.3125 0zm3.6192017 0l0 -1.46875l1.46875 0l0 1.46875l-1.46875 0zm5.93692 0l0 -7.625l1.546875 0l0 3.0l3.015625 0l0 -3.0l1.53125 0l0 7.625l-1.53125 0l0 -3.328125l-3.015625 0l0 3.328125l-1.546875 0zm7.3362427 -2.84375q0 -0.71875 0.359375 -1.40625q0.359375 -0.6875 1.015625 -1.046875q0.671875 -0.359375 1.46875 -0.359375q1.265625 0 2.0625 0.828125q0.796875 0.8125 0.796875 2.046875q0 1.25 -0.8125 2.078125q-0.796875 0.828125 -2.03125 0.828125q-0.75 0 -1.453125 -0.34375q-0.6875 -0.34375 -1.046875 -1.0q-0.359375 -0.671875 -0.359375 -1.625zm1.5 0.078125q0 0.828125 0.390625 1.265625q0.390625 0.4375 0.96875 0.4375q0.5625 0 0.953125 -0.4375q0.390625 -0.4375 0.390625 -1.265625q0 -0.8125 -0.390625 -1.25q-0.390625 -0.4375 -0.953125 -0.4375q-0.578125 0 -0.96875 0.4375q-0.390625 0.4375 -0.390625 1.25zm6.759247 2.765625l-1.46875 0l0 -5.53125l1.359375 0l0 0.796875q0.34375 -0.5625 0.625 -0.734375q0.28125 -0.1875 0.625 -0.1875q0.5 0 0.96875 0.28125l-0.453125 1.28125q-0.375 -0.25 -0.6875 -0.25q-0.3125 0 -0.53125 0.171875q-0.203125 0.171875 -0.328125 0.625q-0.109375 0.4375 -0.109375 1.84375l0 1.703125zm2.7407532 -6.28125l0 -1.34375l1.46875 0l0 1.34375l-1.46875 0zm0 6.28125l0 -5.53125l1.46875 0l0 5.53125l-1.46875 0zm5.4918823 -5.53125l0 1.171875l-1.0 0l0 2.21875q0 0.6875 0.03125 0.796875q0.03125 0.109375 0.125 0.1875q0.109375 0.0625 0.25 0.0625q0.203125 0 0.59375 -0.140625l0.125 1.140625q-0.515625 0.21875 -1.15625 0.21875q-0.390625 0 -0.71875 -0.125q-0.3125 -0.140625 -0.46875 -0.34375q-0.140625 -0.21875 -0.203125 -0.578125q-0.046875 -0.25 -0.046875 -1.03125l0 -2.40625l-0.671875 0l0 -1.171875l0.671875 0l0 -1.09375l1.46875 -0.859375l0 1.953125l1.0 0zm0.42364502 5.53125l0 -1.140625l2.078125 -2.375q0.5 -0.578125 0.75 -0.828125q-0.25 0.015625 -0.671875 0.015625l-1.953125 0.015625l0 -1.21875l4.578125 0l0 1.046875l-2.125 2.421875l-0.734375 0.8125q0.609375 -0.03125 0.75 -0.03125l2.265625 0l0 1.28125l-4.9375 0zm5.578125 -2.84375q0 -0.71875 0.359375 -1.40625q0.359375 -0.6875 1.015625 -1.046875q0.671875 -0.359375 1.46875 -0.359375q1.265625 0 2.0625 0.828125q0.796875 0.8125 0.796875 2.046875q0 1.25 -0.8125 2.078125q-0.796875 0.828125 -2.03125 0.828125q-0.75 0 -1.453125 -0.34375q-0.6875 -0.34375 -1.046875 -1.0q-0.359375 -0.671875 -0.359375 -1.625zm1.5 0.078125q0 0.828125 0.390625 1.265625q0.390625 0.4375 0.96875 0.4375q0.5625 0 0.953125 -0.4375q0.390625 -0.4375 0.390625 -1.265625q0 -0.8125 -0.390625 -1.25q-0.390625 -0.4375 -0.953125 -0.4375q-0.578125 0 -0.96875 0.4375q-0.390625 0.4375 -0.390625 1.25zm10.384216 2.765625l-1.46875 0l0 -2.8125q0 -0.90625 -0.09375 -1.15625q-0.09375 -0.265625 -0.3125 -0.40625q-0.203125 -0.15625 -0.5 -0.15625q-0.375 0 -0.6875 0.21875q-0.296875 0.203125 -0.40625 0.546875q-0.109375 0.34375 -0.109375 1.265625l0 2.5l-1.46875 0l0 -5.53125l1.359375 0l0 0.8125q0.71875 -0.9375 1.828125 -0.9375q0.484375 0 0.875 0.1875q0.40625 0.171875 0.609375 0.4375q0.203125 0.265625 0.28125 0.609375q0.09375 0.34375 0.09375 0.984375l0 3.4375zm4.0092773 -5.53125l0 1.171875l-1.0 0l0 2.21875q0 0.6875 0.03125 0.796875q0.03125 0.109375 0.125 0.1875q0.109375 0.0625 0.25 0.0625q0.203125 0 0.59375 -0.140625l0.125 1.140625q-0.515625 0.21875 -1.15625 0.21875q-0.390625 0 -0.71875 -0.125q-0.3125 -0.140625 -0.46875 -0.34375q-0.140625 -0.21875 -0.203125 -0.578125q-0.046875 -0.25 -0.046875 -1.03125l0 -2.40625l-0.671875 0l0 -1.171875l0.671875 0l0 -1.09375l1.46875 -0.859375l0 1.953125l1.0 0zm2.111145 1.6875l-1.328125 -0.234375q0.21875 -0.796875 0.765625 -1.1875q0.546875 -0.390625 1.625 -0.390625q0.984375 0 1.453125 0.234375q0.484375 0.234375 0.671875 0.59375q0.203125 0.359375 0.203125 1.3125l-0.015625 1.703125q0 0.71875 0.0625 1.078125q0.078125 0.34375 0.265625 0.734375l-1.4375 0q-0.0625 -0.140625 -0.140625 -0.4375q-0.046875 -0.125 -0.0625 -0.171875q-0.375 0.375 -0.796875 0.5625q-0.421875 0.171875 -0.90625 0.171875q-0.859375 0 -1.359375 -0.453125q-0.484375 -0.46875 -0.484375 -1.1875q0 -0.46875 0.21875 -0.828125q0.234375 -0.359375 0.640625 -0.546875q0.40625 -0.203125 1.15625 -0.359375q1.03125 -0.1875 1.421875 -0.359375l0 -0.140625q0 -0.421875 -0.21875 -0.59375q-0.203125 -0.1875 -0.78125 -0.1875q-0.375 0 -0.59375 0.15625q-0.21875 0.15625 -0.359375 0.53125zm1.953125 1.1875q-0.28125 0.09375 -0.890625 0.234375q-0.609375 0.125 -0.796875 0.25q-0.28125 0.203125 -0.28125 0.515625q0 0.296875 0.21875 0.53125q0.234375 0.21875 0.59375 0.21875q0.390625 0 0.75 -0.265625q0.265625 -0.1875 0.34375 -0.484375q0.0625 -0.1875 0.0625 -0.703125l0 -0.296875zm2.8795776 2.65625l0 -7.625l1.46875 0l0 7.625l-1.46875 0z" fill-rule="nonzero"/><path fill="#4a86e8" d="m56.11286 298.76117l0 0c0 -8.314728 6.740406 -15.055145 15.055115 -15.055145l0 0c3.9928665 0 7.822197 1.5861816 10.6455765 4.409546c2.8233871 2.8233948 4.409546 6.65271 4.409546 10.645599l0 0c0 8.314697 -6.74041 15.055115 -15.055122 15.055115l0 0c-8.314709 0 -15.055115 -6.7404175 -15.055115 -15.055115z" fill-rule="evenodd"/><path stroke="#4a86e8" stroke-width="1.0" stroke-linejoin="round" stroke-linecap="butt" d="m56.11286 298.76117l0 0c0 -8.314728 6.740406 -15.055145 15.055115 -15.055145l0 0c3.9928665 0 7.822197 1.5861816 10.6455765 4.409546c2.8233871 2.8233948 4.409546 6.65271 4.409546 10.645599l0 0c0 8.314697 -6.74041 15.055115 -15.055122 15.055115l0 0c-8.314709 0 -15.055115 -6.7404175 -15.055115 -15.055115z" fill-rule="evenodd"/><path fill="#000000" d="m67.001236 305.68115l0 -13.359375l9.015625 0l0 1.578125l-7.25 0l0 4.140625l6.265625 0l0 1.578125l-6.265625 0l0 6.0625l-1.765625 0z" fill-rule="nonzero"/><path fill="#4a86e8" d="m386.6299 124.203415l0 0c0 -8.314713 6.7404175 -15.055122 15.055115 -15.055122l0 0c3.9928894 0 7.8222046 1.5861588 10.645599 4.409546c2.8233643 2.8233795 4.4095154 6.65271 4.4095154 10.6455765l0 0c0 8.314713 -6.740387 15.055115 -15.055115 15.055115l0 0c-8.314697 0 -15.055115 -6.740402 -15.055115 -15.055115z" fill-rule="evenodd"/><path stroke="#4a86e8" stroke-width="1.0" stroke-linejoin="round" stroke-linecap="butt" d="m386.6299 124.203415l0 0c0 -8.314713 6.7404175 -15.055122 15.055115 -15.055122l0 0c3.9928894 0 7.8222046 1.5861588 10.645599 4.409546c2.8233643 2.8233795 4.4095154 6.65271 4.4095154 10.6455765l0 0c0 8.314713 -6.740387 15.055115 -15.055115 15.055115l0 0c-8.314697 0 -15.055115 -6.740402 -15.055115 -15.055115z" fill-rule="evenodd"/><path fill="#000000" d="m400.8308 131.12341l0 -11.78125l-4.40625 0l0 -1.578125l10.578125 0l0 1.578125l-4.40625 0l0 11.78125l-1.765625 0z" fill-rule="nonzero"/></g></svg>