<svg version="1.1" viewBox="0.0 0.0 308.2965879265092 293.1916010498688" fill="none" stroke="none" stroke-linecap="square" stroke-miterlimit="10" xmlns:xlink="http://www.w3.org/1999/xlink" xmlns="http://www.w3.org/2000/svg"><clipPath id="p.0"><path d="m0 0l308.2966 0l0 293.1916l-308.2966 0l0 -293.1916z" clip-rule="nonzero"/></clipPath><g clip-path="url(#p.0)"><path fill="#000000" fill-opacity="0.0" d="m0 0l308.2966 0l0 293.1916l-308.2966 0z" fill-rule="evenodd"/><path fill="#efefef" d="m51.963253 73.83225l0 0c0 -18.676342 15.140163 -33.816505 33.8165 -33.816505l92.05203 0l0 0c8.968704 0 17.570053 3.5628014 23.91188 9.904625c6.3418274 6.3418236 9.904633 14.943184 9.904633 23.91188l0 92.05204c0 18.67633 -15.140167 33.816498 -33.816513 33.816498l-92.05203 0c-18.676338 0 -33.8165 -15.140167 -33.8165 -33.816498z" fill-rule="evenodd"/><path stroke="#999999" stroke-width="4.0" stroke-linejoin="round" stroke-linecap="butt" stroke-dasharray="16.0,12.0" d="m51.963253 73.83225l0 0c0 -18.676342 15.140163 -33.816505 33.8165 -33.816505l92.05203 0l0 0c8.968704 0 17.570053 3.5628014 23.91188 9.904625c6.3418274 6.3418236 9.904633 14.943184 9.904633 23.91188l0 92.05204c0 18.67633 -15.140167 33.816498 -33.816513 33.816498l-92.05203 0c-18.676338 0 -33.8165 -15.140167 -33.8165 -33.816498z" fill-rule="evenodd"/><path fill="#efefef" d="m255.83727 270.6669l0 0c0 -18.676346 15.1401825 -33.816513 33.816513 -33.816513l92.05203 0l0 0c8.968689 0 17.570038 3.5628052 23.911865 9.904633c6.3418274 6.3418274 9.904633 14.943192 9.904633 23.91188l0 92.05203c0 18.67633 -15.140167 33.816498 -33.816498 33.816498l-92.05203 0c-18.67633 0 -33.816513 -15.140167 -33.816513 -33.816498z" fill-rule="evenodd"/><path stroke="#999999" stroke-width="4.0" stroke-linejoin="round" stroke-linecap="butt" stroke-dasharray="16.0,12.0" d="m255.83727 270.6669l0 0c0 -18.676346 15.1401825 -33.816513 33.816513 -33.816513l92.05203 0l0 0c8.968689 0 17.570038 3.5628052 23.911865 9.904633c6.3418274 6.3418274 9.904633 14.943192 9.904633 23.91188l0 92.05203c0 18.67633 -15.140167 33.816498 -33.816498 33.816498l-92.05203 0c-18.67633 0 -33.816513 -15.140167 -33.816513 -33.816498z" fill-rule="evenodd"/><path fill="#efefef" d="m251.14436 73.83225l0 0c0 -18.676342 15.140152 -33.816505 33.816483 -33.816505l92.05206 0l0 0c8.968689 0 17.570038 3.5628014 23.911865 9.904625c6.3418274 6.3418236 9.904633 14.943184 9.904633 23.91188l0 92.05204c0 18.67633 -15.140167 33.816498 -33.816498 33.816498l-92.05206 0c-18.67633 0 -33.816483 -15.140167 -33.816483 -33.816498z" fill-rule="evenodd"/><path stroke="#999999" stroke-width="4.0" stroke-linejoin="round" stroke-linecap="butt" stroke-dasharray="16.0,12.0" d="m251.14436 73.83225l0 0c0 -18.676342 15.140152 -33.816505 33.816483 -33.816505l92.05206 0l0 0c8.968689 0 17.570038 3.5628014 23.911865 9.904625c6.3418274 6.3418236 9.904633 14.943184 9.904633 23.91188l0 92.05204c0 18.67633 -15.140167 33.816498 -33.816498 33.816498l-92.05206 0c-18.67633 0 -33.816483 -15.140167 -33.816483 -33.816498z" fill-rule="evenodd"/><path fill="#efefef" d="m51.963253 251.90994l0 0c0 -7.0285034 5.6977196 -12.726212 12.726208 -12.726212l134.23264 0c3.3751984 0 6.612152 1.3407898 8.998779 3.727417c2.3866272 2.3866272 3.7274323 5.623581 3.7274323 8.998795l0 34.64206c0 7.0285034 -5.6977234 12.726227 -12.726212 12.726227l-134.23264 0c-7.028488 0 -12.726208 -5.6977234 -12.726208 -12.726227z" fill-rule="evenodd"/><path stroke="#999999" stroke-width="4.0" stroke-linejoin="round" stroke-linecap="butt" stroke-dasharray="16.0,12.0" d="m51.963253 251.90994l0 0c0 -7.0285034 5.6977196 -12.726212 12.726208 -12.726212l134.23264 0c3.3751984 0 6.612152 1.3407898 8.998779 3.727417c2.3866272 2.3866272 3.7274323 5.623581 3.7274323 8.998795l0 34.64206c0 7.0285034 -5.6977234 12.726227 -12.726212 12.726227l-134.23264 0c-7.028488 0 -12.726208 -5.6977234 -12.726208 -12.726227z" fill-rule="evenodd"/><path fill="#000000" fill-opacity="0.0" d="m62.372704 214.7559l153.98425 0" fill-rule="evenodd"/><path stroke="#000000" stroke-width="4.0" stroke-linejoin="round" stroke-linecap="butt" d="m62.372704 214.7559l129.98425 0" fill-rule="evenodd"/><path fill="#000000" stroke="#000000" stroke-width="4.0" stroke-linecap="butt" d="m192.35695 221.36284l18.152405 -6.6069336l-18.152405 -6.6069336z" fill-rule="evenodd"/><path fill="#ff0000" d="m32.262466 214.7559l0 0c0 -8.314713 6.740406 -15.055115 15.055119 -15.055115l0 0c3.9928665 0 7.822193 1.5861511 10.6455765 4.409546c2.8233833 2.8233795 4.409542 6.65271 4.409542 10.645569l0 0c0 8.314713 -6.740406 15.055115 -15.055119 15.055115l0 0c-8.314713 0 -15.055119 -6.740402 -15.055119 -15.055115z" fill-rule="evenodd"/><path stroke="#ff0000" stroke-width="1.0" stroke-linejoin="round" stroke-linecap="butt" d="m32.262466 214.7559l0 0c0 -8.314713 6.740406 -15.055115 15.055119 -15.055115l0 0c3.9928665 0 7.822193 1.5861511 10.6455765 4.409546c2.8233833 2.8233795 4.409542 6.65271 4.409542 10.645569l0 0c0 8.314713 -6.740406 15.055115 -15.055119 15.055115l0 0c-8.314713 0 -15.055119 -6.740402 -15.055119 -15.055115z" fill-rule="evenodd"/><path fill="#000000" d="m42.910976 218.14465l1.640625 -0.21875q0.28125 1.40625 0.953125 2.015625q0.6875 0.609375 1.65625 0.609375q1.15625 0 1.953125 -0.796875q0.796875 -0.796875 0.796875 -1.984375q0 -1.125 -0.734375 -1.859375q-0.734375 -0.734375 -1.875 -0.734375q-0.46875 0 -1.15625 0.171875l0.1875 -1.4375q0.15625 0.015625 0.265625 0.015625q1.046875 0 1.875 -0.546875q0.84375 -0.546875 0.84375 -1.671875q0 -0.90625 -0.609375 -1.5q-0.609375 -0.59375 -1.578125 -0.59375q-0.953125 0 -1.59375 0.609375q-0.640625 0.59375 -0.8125 1.796875l-1.640625 -0.296875q0.296875 -1.640625 1.359375 -2.546875q1.0625 -0.90625 2.65625 -0.90625q1.09375 0 2.0 0.46875q0.921875 0.46875 1.40625 1.28125q0.5 0.8125 0.5 1.71875q0 0.859375 -0.46875 1.578125q-0.46875 0.703125 -1.375 1.125q1.1875 0.28125 1.84375 1.140625q0.65625 0.859375 0.65625 2.15625q0 1.734375 -1.28125 2.953125q-1.265625 1.21875 -3.21875 1.21875q-1.765625 0 -2.921875 -1.046875q-1.15625 -1.046875 -1.328125 -2.71875z" fill-rule="nonzero"/><path fill="#ff0000" d="m216.3412 214.76378l0 0c0 -8.314713 6.7404175 -15.055115 15.05513 -15.055115l0 0c3.992859 0 7.8221893 1.5861511 10.645569 4.409546c2.8233795 2.8233795 4.409546 6.65271 4.409546 10.645569l0 0c0 8.314713 -6.740402 15.055115 -15.055115 15.055115l0 0c-8.314713 0 -15.05513 -6.740402 -15.05513 -15.055115z" fill-rule="evenodd"/><path stroke="#ff0000" stroke-width="1.0" stroke-linejoin="round" stroke-linecap="butt" d="m216.3412 214.76378l0 0c0 -8.314713 6.7404175 -15.055115 15.05513 -15.055115l0 0c3.992859 0 7.8221893 1.5861511 10.645569 4.409546c2.8233795 2.8233795 4.409546 6.65271 4.409546 10.645569l0 0c0 8.314713 -6.740402 15.055115 -15.055115 15.055115l0 0c-8.314713 0 -15.05513 -6.740402 -15.05513 -15.055115z" fill-rule="evenodd"/><path fill="#000000" d="m232.23972 221.68378l0 -3.203125l-5.796875 0l0 -1.5l6.09375 -8.65625l1.34375 0l0 8.65625l1.796875 0l0 1.5l-1.796875 0l0 3.203125l-1.640625 0zm0 -4.703125l0 -6.015625l-4.1875 6.015625l4.1875 0z" fill-rule="nonzero"/><path fill="#4a86e8" d="m116.750656 214.7559l0 0c0 -8.314713 6.740402 -15.055115 15.055115 -15.055115l0 0c3.9928741 0 7.8222046 1.5861511 10.645584 4.409546c2.8233795 2.8233795 4.4095306 6.65271 4.4095306 10.645569l0 0c0 8.314713 -6.740402 15.055115 -15.055115 15.055115l0 0c-8.314713 0 -15.055115 -6.740402 -15.055115 -15.055115z" fill-rule="evenodd"/><path stroke="#4a86e8" stroke-width="1.0" stroke-linejoin="round" stroke-linecap="butt" d="m116.750656 214.7559l0 0c0 -8.314713 6.740402 -15.055115 15.055115 -15.055115l0 0c3.9928741 0 7.8222046 1.5861511 10.645584 4.409546c2.8233795 2.8233795 4.4095306 6.65271 4.4095306 10.645569l0 0c0 8.314713 -6.740402 15.055115 -15.055115 15.055115l0 0c-8.314713 0 -15.055115 -6.740402 -15.055115 -15.055115z" fill-rule="evenodd"/><path fill="#000000" d="m125.425995 221.6759l0 -13.359375l2.65625 0l3.15625 9.453125q0.4375 1.328125 0.640625 1.984375q0.234375 -0.734375 0.703125 -2.140625l3.203125 -9.296875l2.375 0l0 13.359375l-1.703125 0l0 -11.171875l-3.875 11.171875l-1.59375 0l-3.859375 -11.375l0 11.375l-1.703125 0z" fill-rule="nonzero"/></g></svg>