<svg version="1.1" viewBox="0.0 0.0 670.9790026246719 657.6089238845144" fill="none" stroke="none" stroke-linecap="square" stroke-miterlimit="10" xmlns:xlink="http://www.w3.org/1999/xlink" xmlns="http://www.w3.org/2000/svg"><clipPath id="p.0"><path d="m0 0l670.979 0l0 657.60895l-670.979 0l0 -657.60895z" clip-rule="nonzero"/></clipPath><g clip-path="url(#p.0)"><path fill="#000000" fill-opacity="0.0" d="m0 0l670.979 0l0 657.60895l-670.979 0z" fill-rule="evenodd"/><path fill="#666666" d="m51.963253 73.83225l0 0c0 -18.676342 15.140163 -33.816505 33.8165 -33.816505l92.05203 0l0 0c8.968704 0 17.570053 3.5628014 23.91188 9.904625c6.3418274 6.3418236 9.904633 14.943184 9.904633 23.91188l0 92.05204c0 18.67633 -15.140167 33.816498 -33.816513 33.816498l-92.05203 0c-18.676338 0 -33.8165 -15.140167 -33.8165 -33.816498z" fill-rule="evenodd"/><path stroke="#d9d9d9" stroke-width="4.0" stroke-linejoin="round" stroke-linecap="butt" stroke-dasharray="16.0,12.0" d="m51.963253 73.83225l0 0c0 -18.676342 15.140163 -33.816505 33.8165 -33.816505l92.05203 0l0 0c8.968704 0 17.570053 3.5628014 23.91188 9.904625c6.3418274 6.3418236 9.904633 14.943184 9.904633 23.91188l0 92.05204c0 18.67633 -15.140167 33.816498 -33.816513 33.816498l-92.05203 0c-18.676338 0 -33.8165 -15.140167 -33.8165 -33.816498z" fill-rule="evenodd"/><path fill="#666666" d="m255.83727 270.6669l0 0c0 -18.676346 15.1401825 -33.816513 33.816513 -33.816513l92.05203 0l0 0c8.968689 0 17.570038 3.5628052 23.911865 9.904633c6.3418274 6.3418274 9.904633 14.943192 9.904633 23.91188l0 92.05203c0 18.67633 -15.140167 33.816498 -33.816498 33.816498l-92.05203 0c-18.67633 0 -33.816513 -15.140167 -33.816513 -33.816498z" fill-rule="evenodd"/><path stroke="#d9d9d9" stroke-width="4.0" stroke-linejoin="round" stroke-linecap="butt" stroke-dasharray="16.0,12.0" d="m255.83727 270.6669l0 0c0 -18.676346 15.1401825 -33.816513 33.816513 -33.816513l92.05203 0l0 0c8.968689 0 17.570038 3.5628052 23.911865 9.904633c6.3418274 6.3418274 9.904633 14.943192 9.904633 23.91188l0 92.05203c0 18.67633 -15.140167 33.816498 -33.816498 33.816498l-92.05203 0c-18.67633 0 -33.816513 -15.140167 -33.816513 -33.816498z" fill-rule="evenodd"/><path fill="#666666" d="m251.14436 73.83225l0 0c0 -18.676342 15.140152 -33.816505 33.816483 -33.816505l92.05206 0l0 0c8.968689 0 17.570038 3.5628014 23.911865 9.904625c6.3418274 6.3418236 9.904633 14.943184 9.904633 23.91188l0 92.05204c0 18.67633 -15.140167 33.816498 -33.816498 33.816498l-92.05206 0c-18.67633 0 -33.816483 -15.140167 -33.816483 -33.816498z" fill-rule="evenodd"/><path stroke="#d9d9d9" stroke-width="4.0" stroke-linejoin="round" stroke-linecap="butt" stroke-dasharray="16.0,12.0" d="m251.14436 73.83225l0 0c0 -18.676342 15.140152 -33.816505 33.816483 -33.816505l92.05206 0l0 0c8.968689 0 17.570038 3.5628014 23.911865 9.904625c6.3418274 6.3418236 9.904633 14.943184 9.904633 23.91188l0 92.05204c0 18.67633 -15.140167 33.816498 -33.816498 33.816498l-92.05206 0c-18.67633 0 -33.816483 -15.140167 -33.816483 -33.816498z" fill-rule="evenodd"/><path fill="#666666" d="m450.32547 73.83225l0 0c0 -18.676342 15.140167 -33.816505 33.816498 -33.816505l92.052 0l0 0c8.96875 0 17.570068 3.5628014 23.911926 9.904625c6.341797 6.3418236 9.904602 14.943184 9.904602 23.91188l0 291.23315c0 18.67633 -15.140137 33.816498 -33.81653 33.816498l-92.052 0c-18.67633 0 -33.816498 -15.140167 -33.816498 -33.816498z" fill-rule="evenodd"/><path stroke="#d9d9d9" stroke-width="4.0" stroke-linejoin="round" stroke-linecap="butt" stroke-dasharray="16.0,12.0" d="m450.32547 73.83225l0 0c0 -18.676342 15.140167 -33.816505 33.816498 -33.816505l92.052 0l0 0c8.96875 0 17.570068 3.5628014 23.911926 9.904625c6.341797 6.3418236 9.904602 14.943184 9.904602 23.91188l0 291.23315c0 18.67633 -15.140137 33.816498 -33.81653 33.816498l-92.052 0c-18.67633 0 -33.816498 -15.140167 -33.816498 -33.816498z" fill-rule="evenodd"/><path fill="#666666" d="m51.963253 351.5136l0 0c0 -7.0285034 5.6977196 -12.726196 12.726208 -12.726196l134.23264 0c3.3751984 0 6.612152 1.3407898 8.998779 3.727417c2.3866272 2.3866272 3.7274323 5.6235657 3.7274323 8.998779l0 34.64206c0 7.0285034 -5.6977234 12.726227 -12.726212 12.726227l-134.23264 0c-7.028488 0 -12.726208 -5.6977234 -12.726208 -12.726227z" fill-rule="evenodd"/><path stroke="#d9d9d9" stroke-width="4.0" stroke-linejoin="round" stroke-linecap="butt" stroke-dasharray="16.0,12.0" d="m51.963253 351.5136l0 0c0 -7.0285034 5.6977196 -12.726196 12.726208 -12.726196l134.23264 0c3.3751984 0 6.612152 1.3407898 8.998779 3.727417c2.3866272 2.3866272 3.7274323 5.6235657 3.7274323 8.998779l0 34.64206c0 7.0285034 -5.6977234 12.726227 -12.726212 12.726227l-134.23264 0c-7.028488 0 -12.726208 -5.6977234 -12.726208 -12.726227z" fill-rule="evenodd"/><path fill="#666666" d="m51.963253 251.90994l0 0c0 -7.0285034 5.6977196 -12.726212 12.726208 -12.726212l134.23264 0c3.3751984 0 6.612152 1.3407898 8.998779 3.727417c2.3866272 2.3866272 3.7274323 5.623581 3.7274323 8.998795l0 34.64206c0 7.0285034 -5.6977234 12.726227 -12.726212 12.726227l-134.23264 0c-7.028488 0 -12.726208 -5.6977234 -12.726208 -12.726227z" fill-rule="evenodd"/><path stroke="#d9d9d9" stroke-width="4.0" stroke-linejoin="round" stroke-linecap="butt" stroke-dasharray="16.0,12.0" d="m51.963253 251.90994l0 0c0 -7.0285034 5.6977196 -12.726212 12.726208 -12.726212l134.23264 0c3.3751984 0 6.612152 1.3407898 8.998779 3.727417c2.3866272 2.3866272 3.7274323 5.623581 3.7274323 8.998795l0 34.64206c0 7.0285034 -5.6977234 12.726227 -12.726212 12.726227l-134.23264 0c-7.028488 0 -12.726208 -5.6977234 -12.726208 -12.726227z" fill-rule="evenodd"/><path fill="#666666" d="m576.1126 438.39108l0 0c18.67633 0 33.81653 15.140167 33.81653 33.816498l0 92.05206l0 0c0 8.968689 -3.5628052 17.570007 -9.904602 23.911865c-6.341858 6.341797 -14.943237 9.904602 -23.911926 9.904602l-490.35123 0c-18.676338 0 -33.8165 -15.140137 -33.8165 -33.816467l0 -92.05206c0 -18.67633 15.140163 -33.816498 33.8165 -33.816498z" fill-rule="evenodd"/><path stroke="#d9d9d9" stroke-width="4.0" stroke-linejoin="round" stroke-linecap="butt" stroke-dasharray="16.0,12.0" d="m576.1126 438.39108l0 0c18.67633 0 33.81653 15.140167 33.81653 33.816498l0 92.05206l0 0c0 8.968689 -3.5628052 17.570007 -9.904602 23.911865c-6.341858 6.341797 -14.943237 9.904602 -23.911926 9.904602l-490.35123 0c-18.676338 0 -33.8165 -15.140137 -33.8165 -33.816467l0 -92.05206c0 -18.67633 15.140163 -33.816498 33.8165 -33.816498z" fill-rule="evenodd"/><path fill="#ff0000" d="m216.3412 40.070866l0 0c0 -8.314713 6.7404175 -15.055117 15.05513 -15.055117l0 0c3.992859 0 7.8221893 1.5861588 10.645569 4.40954c2.8233795 2.8233833 4.409546 6.65271 4.409546 10.6455765l0 0c0 8.314713 -6.740402 15.055119 -15.055115 15.055119l0 0c-8.314713 0 -15.05513 -6.740406 -15.05513 -15.055119z" fill-rule="evenodd"/><path stroke="#ff0000" stroke-width="1.0" stroke-linejoin="round" stroke-linecap="butt" d="m216.3412 40.070866l0 0c0 -8.314713 6.7404175 -15.055117 15.05513 -15.055117l0 0c3.992859 0 7.8221893 1.5861588 10.645569 4.40954c2.8233795 2.8233833 4.409546 6.65271 4.409546 10.6455765l0 0c0 8.314713 -6.740402 15.055119 -15.055115 15.055119l0 0c-8.314713 0 -15.05513 -6.740406 -15.05513 -15.055119z" fill-rule="evenodd"/><path fill="#000000" d="m233.16159 46.990864l-1.640625 0l0 -10.453125q-0.59375 0.5625 -1.5625 1.140625q-0.953125 0.5625 -1.71875 0.84375l0 -1.59375q1.375 -0.640625 2.40625 -1.5625q1.03125 -0.921875 1.453125 -1.78125l1.0625 0l0 13.40625z" fill-rule="nonzero"/><path fill="#000000" fill-opacity="0.0" d="m62.372704 214.7559l153.98425 0" fill-rule="evenodd"/><path stroke="#ffffff" stroke-width="4.0" stroke-linejoin="round" stroke-linecap="butt" d="m62.372704 214.7559l129.98425 0" fill-rule="evenodd"/><path fill="#ffffff" stroke="#ffffff" stroke-width="4.0" stroke-linecap="butt" d="m192.35695 221.36284l18.152405 -6.6069336l-18.152405 -6.6069336z" fill-rule="evenodd"/><path fill="#000000" fill-opacity="0.0" d="m62.372704 319.0328l153.98425 0" fill-rule="evenodd"/><path stroke="#ffffff" stroke-width="4.0" stroke-linejoin="round" stroke-linecap="butt" d="m62.372704 319.0328l129.98425 0" fill-rule="evenodd"/><path fill="#ffffff" stroke="#ffffff" stroke-width="4.0" stroke-linecap="butt" d="m192.35695 325.63974l18.152405 -6.6069336l-18.152405 -6.6069336z" fill-rule="evenodd"/><path fill="#000000" fill-opacity="0.0" d="m64.64567 418.6299l151.68503 0" fill-rule="evenodd"/><path stroke="#ffffff" stroke-width="4.0" stroke-linejoin="round" stroke-linecap="butt" d="m88.64567 418.6299l103.685036 0" fill-rule="evenodd"/><path fill="#ffffff" stroke="#ffffff" stroke-width="4.0" stroke-linecap="butt" d="m88.64567 412.02298l-18.15239 6.6069336l18.15239 6.6069336z" fill-rule="evenodd"/><path fill="#ffffff" stroke="#ffffff" stroke-width="4.0" stroke-linecap="butt" d="m192.3307 425.23685l18.15239 -6.6069336l-18.15239 -6.6069336z" fill-rule="evenodd"/><path fill="#000000" fill-opacity="0.0" d="m246.45145 214.7559l169.07086 0" fill-rule="evenodd"/><path stroke="#ffffff" stroke-width="4.0" stroke-linejoin="round" stroke-linecap="butt" d="m246.45145 214.7559l145.07086 0" fill-rule="evenodd"/><path fill="#ffffff" stroke="#ffffff" stroke-width="4.0" stroke-linecap="butt" d="m391.5223 221.36284l18.152405 -6.6069336l-18.152405 -6.6069336z" fill-rule="evenodd"/><path fill="#000000" fill-opacity="0.0" d="m231.39633 199.69292l0 -144.56693" fill-rule="evenodd"/><path stroke="#ffffff" stroke-width="4.0" stroke-linejoin="round" stroke-linecap="butt" d="m231.39633 175.69292l0 -120.56693" fill-rule="evenodd"/><path fill="#ffffff" stroke="#ffffff" stroke-width="4.0" stroke-linecap="butt" d="m224.7894 175.69292l6.6069336 18.15239l6.6069183 -18.15239z" fill-rule="evenodd"/><path fill="#000000" fill-opacity="0.0" d="m231.39633 303.979l0 -74.17323" fill-rule="evenodd"/><path stroke="#ffffff" stroke-width="4.0" stroke-linejoin="round" stroke-linecap="butt" d="m231.39633 303.979l0 -50.173233" fill-rule="evenodd"/><path fill="#ffffff" stroke="#ffffff" stroke-width="4.0" stroke-linecap="butt" d="m238.00325 253.80577l-6.6069183 -18.15239l-6.6069336 18.15239z" fill-rule="evenodd"/><path fill="#000000" fill-opacity="0.0" d="m231.39633 403.5748l0 -69.480316" fill-rule="evenodd"/><path stroke="#ffffff" stroke-width="4.0" stroke-linejoin="round" stroke-linecap="butt" d="m231.39633 389.86646l0 -55.771973" fill-rule="evenodd"/><path fill="#ffffff" stroke="#ffffff" stroke-width="4.0" stroke-linecap="butt" d="m231.39633 389.86646l-4.498337 -4.4983215l4.498337 12.35907l4.4983215 -12.35907z" fill-rule="evenodd"/><path fill="#000000" fill-opacity="0.0" d="m246.45145 418.6299l169.07086 0" fill-rule="evenodd"/><path stroke="#ffffff" stroke-width="4.0" stroke-linejoin="round" stroke-linecap="butt" d="m270.45145 418.6299l121.07086 0" fill-rule="evenodd"/><path fill="#ffffff" stroke="#ffffff" stroke-width="4.0" stroke-linecap="butt" d="m270.45145 412.02298l-18.15239 6.6069336l18.15239 6.6069336z" fill-rule="evenodd"/><path fill="#ffffff" stroke="#ffffff" stroke-width="4.0" stroke-linecap="butt" d="m391.5223 425.23685l18.152405 -6.6069336l-18.152405 -6.6069336z" fill-rule="evenodd"/><path fill="#000000" fill-opacity="0.0" d="m445.63254 418.6299l151.59055 0" fill-rule="evenodd"/><path stroke="#ffffff" stroke-width="4.0" stroke-linejoin="round" stroke-linecap="butt" d="m469.63254 418.6299l103.590546 0" fill-rule="evenodd"/><path fill="#ffffff" stroke="#ffffff" stroke-width="4.0" stroke-linecap="butt" d="m469.63254 412.02298l-18.152374 6.6069336l18.152374 6.6069336z" fill-rule="evenodd"/><path fill="#ffffff" stroke="#ffffff" stroke-width="4.0" stroke-linecap="butt" d="m573.2231 425.23685l18.152405 -6.6069336l-18.152405 -6.6069336z" fill-rule="evenodd"/><path fill="#000000" fill-opacity="0.0" d="m430.57742 229.81102l0 173.76378" fill-rule="evenodd"/><path stroke="#ffffff" stroke-width="4.0" stroke-linejoin="round" stroke-linecap="butt" d="m430.57742 253.81102l0 149.76378" fill-rule="evenodd"/><path fill="#ffffff" stroke="#ffffff" stroke-width="4.0" stroke-linecap="butt" d="m437.18436 253.81102l-6.6069336 -18.15239l-6.6069336 18.15239z" fill-rule="evenodd"/><path fill="#000000" fill-opacity="0.0" d="m430.57742 55.125984l0 144.56693" fill-rule="evenodd"/><path stroke="#ffffff" stroke-width="4.0" stroke-linejoin="round" stroke-linecap="butt" d="m430.57742 79.125984l0 120.56693" fill-rule="evenodd"/><path fill="#ffffff" stroke="#ffffff" stroke-width="4.0" stroke-linecap="butt" d="m437.18436 79.125984l-6.6069336 -18.15239l-6.6069336 18.15239z" fill-rule="evenodd"/><path fill="#ff0000" d="m415.5223 40.070866l0 0c0 -8.314713 6.7404175 -15.055117 15.055115 -15.055117l0 0c3.992859 0 7.8222046 1.5861588 10.645569 4.40954c2.8233948 2.8233833 4.409546 6.65271 4.409546 10.6455765l0 0c0 8.314713 -6.740387 15.055119 -15.055115 15.055119l0 0c-8.314697 0 -15.055115 -6.740406 -15.055115 -15.055119z" fill-rule="evenodd"/><path stroke="#ff0000" stroke-width="1.0" stroke-linejoin="round" stroke-linecap="butt" d="m415.5223 40.070866l0 0c0 -8.314713 6.7404175 -15.055117 15.055115 -15.055117l0 0c3.992859 0 7.8222046 1.5861588 10.645569 4.40954c2.8233948 2.8233833 4.409546 6.65271 4.409546 10.6455765l0 0c0 8.314713 -6.740387 15.055119 -15.055115 15.055119l0 0c-8.314697 0 -15.055115 -6.740406 -15.055115 -15.055119z" fill-rule="evenodd"/><path fill="#000000" d="m434.78018 45.41274l0 1.578125l-8.828125 0q-0.015625 -0.59375 0.1875 -1.140625q0.34375 -0.90625 1.078125 -1.78125q0.75 -0.875 2.15625 -2.015625q2.171875 -1.78125 2.9375 -2.828125q0.765625 -1.046875 0.765625 -1.96875q0 -0.984375 -0.703125 -1.640625q-0.6875 -0.671875 -1.8125 -0.671875q-1.1875 0 -1.90625 0.71875q-0.703125 0.703125 -0.703125 1.953125l-1.6875 -0.171875q0.171875 -1.890625 1.296875 -2.875q1.140625 -0.984375 3.03125 -0.984375q1.921875 0 3.046875 1.0625q1.125 1.0625 1.125 2.640625q0 0.796875 -0.328125 1.578125q-0.328125 0.78125 -1.09375 1.640625q-0.75 0.84375 -2.53125 2.34375q-1.46875 1.234375 -1.890625 1.6875q-0.421875 0.4375 -0.6875 0.875l6.546875 0z" fill-rule="nonzero"/><path fill="#ff0000" d="m32.262466 214.7559l0 0c0 -8.314713 6.740406 -15.055115 15.055119 -15.055115l0 0c3.9928665 0 7.822193 1.5861511 10.6455765 4.409546c2.8233833 2.8233795 4.409542 6.65271 4.409542 10.645569l0 0c0 8.314713 -6.740406 15.055115 -15.055119 15.055115l0 0c-8.314713 0 -15.055119 -6.740402 -15.055119 -15.055115z" fill-rule="evenodd"/><path stroke="#ff0000" stroke-width="1.0" stroke-linejoin="round" stroke-linecap="butt" d="m32.262466 214.7559l0 0c0 -8.314713 6.740406 -15.055115 15.055119 -15.055115l0 0c3.9928665 0 7.822193 1.5861511 10.6455765 4.409546c2.8233833 2.8233795 4.409542 6.65271 4.409542 10.645569l0 0c0 8.314713 -6.740406 15.055115 -15.055119 15.055115l0 0c-8.314713 0 -15.055119 -6.740402 -15.055119 -15.055115z" fill-rule="evenodd"/><path fill="#000000" d="m42.910976 218.14465l1.640625 -0.21875q0.28125 1.40625 0.953125 2.015625q0.6875 0.609375 1.65625 0.609375q1.15625 0 1.953125 -0.796875q0.796875 -0.796875 0.796875 -1.984375q0 -1.125 -0.734375 -1.859375q-0.734375 -0.734375 -1.875 -0.734375q-0.46875 0 -1.15625 0.171875l0.1875 -1.4375q0.15625 0.015625 0.265625 0.015625q1.046875 0 1.875 -0.546875q0.84375 -0.546875 0.84375 -1.671875q0 -0.90625 -0.609375 -1.5q-0.609375 -0.59375 -1.578125 -0.59375q-0.953125 0 -1.59375 0.609375q-0.640625 0.59375 -0.8125 1.796875l-1.640625 -0.296875q0.296875 -1.640625 1.359375 -2.546875q1.0625 -0.90625 2.65625 -0.90625q1.09375 0 2.0 0.46875q0.921875 0.46875 1.40625 1.28125q0.5 0.8125 0.5 1.71875q0 0.859375 -0.46875 1.578125q-0.46875 0.703125 -1.375 1.125q1.1875 0.28125 1.84375 1.140625q0.65625 0.859375 0.65625 2.15625q0 1.734375 -1.28125 2.953125q-1.265625 1.21875 -3.21875 1.21875q-1.765625 0 -2.921875 -1.046875q-1.15625 -1.046875 -1.328125 -2.71875z" fill-rule="nonzero"/><path fill="#ff0000" d="m216.3412 214.76378l0 0c0 -8.314713 6.7404175 -15.055115 15.05513 -15.055115l0 0c3.992859 0 7.8221893 1.5861511 10.645569 4.409546c2.8233795 2.8233795 4.409546 6.65271 4.409546 10.645569l0 0c0 8.314713 -6.740402 15.055115 -15.055115 15.055115l0 0c-8.314713 0 -15.05513 -6.740402 -15.05513 -15.055115z" fill-rule="evenodd"/><path stroke="#ff0000" stroke-width="1.0" stroke-linejoin="round" stroke-linecap="butt" d="m216.3412 214.76378l0 0c0 -8.314713 6.7404175 -15.055115 15.05513 -15.055115l0 0c3.992859 0 7.8221893 1.5861511 10.645569 4.409546c2.8233795 2.8233795 4.409546 6.65271 4.409546 10.645569l0 0c0 8.314713 -6.740402 15.055115 -15.055115 15.055115l0 0c-8.314713 0 -15.05513 -6.740402 -15.05513 -15.055115z" fill-rule="evenodd"/><path fill="#000000" d="m232.23972 221.68378l0 -3.203125l-5.796875 0l0 -1.5l6.09375 -8.65625l1.34375 0l0 8.65625l1.796875 0l0 1.5l-1.796875 0l0 3.203125l-1.640625 0zm0 -4.703125l0 -6.015625l-4.1875 6.015625l4.1875 0z" fill-rule="nonzero"/><path fill="#ff0000" d="m415.5223 214.7546l0 0c0 -8.314713 6.7404175 -15.055115 15.055115 -15.055115l0 0c3.992859 0 7.8222046 1.5861511 10.645569 4.409546c2.8233948 2.8233795 4.409546 6.65271 4.409546 10.645569l0 0c0 8.314713 -6.740387 15.055115 -15.055115 15.055115l0 0c-8.314697 0 -15.055115 -6.740402 -15.055115 -15.055115z" fill-rule="evenodd"/><path stroke="#ff0000" stroke-width="1.0" stroke-linejoin="round" stroke-linecap="butt" d="m415.5223 214.7546l0 0c0 -8.314713 6.7404175 -15.055115 15.055115 -15.055115l0 0c3.992859 0 7.8222046 1.5861511 10.645569 4.409546c2.8233948 2.8233795 4.409546 6.65271 4.409546 10.645569l0 0c0 8.314713 -6.740387 15.055115 -15.055115 15.055115l0 0c-8.314697 0 -15.055115 -6.740402 -15.055115 -15.055115z" fill-rule="evenodd"/><path fill="#000000" d="m426.1708 218.17459l1.71875 -0.140625q0.1875 1.25 0.875 1.890625q0.703125 0.625 1.6875 0.625q1.1875 0 2.0 -0.890625q0.828125 -0.890625 0.828125 -2.359375q0 -1.40625 -0.796875 -2.21875q-0.78125 -0.8125 -2.0625 -0.8125q-0.78125 0 -1.421875 0.359375q-0.640625 0.359375 -1.0 0.9375l-1.546875 -0.203125l1.296875 -6.859375l6.640625 0l0 1.5625l-5.328125 0l-0.71875 3.59375q1.203125 -0.84375 2.515625 -0.84375q1.75 0 2.953125 1.21875q1.203125 1.203125 1.203125 3.109375q0 1.8125 -1.046875 3.140625q-1.296875 1.625 -3.515625 1.625q-1.8125 0 -2.96875 -1.015625q-1.15625 -1.03125 -1.3125 -2.71875z" fill-rule="nonzero"/><path fill="#ff0000" d="m597.22833 418.63647l0 0c0 -8.314697 6.7404175 -15.055115 15.055115 -15.055115l0 0c3.992859 0 7.8222046 1.5861511 10.645569 4.409546c2.8234253 2.8233948 4.409546 6.65271 4.409546 10.645569l0 0c0 8.314728 -6.7403564 15.055115 -15.055115 15.055115l0 0c-8.314697 0 -15.055115 -6.740387 -15.055115 -15.055115z" fill-rule="evenodd"/><path stroke="#ff0000" stroke-width="1.0" stroke-linejoin="round" stroke-linecap="butt" d="m597.22833 418.63647l0 0c0 -8.314697 6.7404175 -15.055115 15.055115 -15.055115l0 0c3.992859 0 7.8222046 1.5861511 10.645569 4.409546c2.8234253 2.8233948 4.409546 6.65271 4.409546 10.645569l0 0c0 8.314728 -6.7403564 15.055115 -15.055115 15.055115l0 0c-8.314697 0 -15.055115 -6.740387 -15.055115 -15.055115z" fill-rule="evenodd"/><path fill="#000000" d="m609.5536 425.5565l-1.640625 0l0 -10.453125q-0.59375 0.5625 -1.5625 1.140625q-0.953125 0.5625 -1.71875 0.84375l0 -1.59375q1.375 -0.640625 2.40625 -1.5625q1.03125 -0.921875 1.453125 -1.78125l1.0625 0l0 13.40625zm8.990295 0l-1.640625 0l0 -10.453125q-0.59375 0.5625 -1.5625 1.140625q-0.953125 0.5625 -1.71875 0.84375l0 -1.59375q1.375 -0.640625 2.40625 -1.5625q1.03125 -0.921875 1.453125 -1.78125l1.0625 0l0 13.40625z" fill-rule="nonzero"/><path fill="#ff0000" d="m415.51706 417.46326l0 0c0 -8.314728 6.7404175 -15.055115 15.055115 -15.055115l0 0c3.992859 0 7.8222046 1.5861511 10.645569 4.409546c2.8233948 2.8233643 4.409546 6.65271 4.409546 10.645569l0 0c0 8.314697 -6.740387 15.055115 -15.055115 15.055115l0 0c-8.314697 0 -15.055115 -6.7404175 -15.055115 -15.055115z" fill-rule="evenodd"/><path stroke="#ff0000" stroke-width="1.0" stroke-linejoin="round" stroke-linecap="butt" d="m415.51706 417.46326l0 0c0 -8.314728 6.7404175 -15.055115 15.055115 -15.055115l0 0c3.992859 0 7.8222046 1.5861511 10.645569 4.409546c2.8233948 2.8233643 4.409546 6.65271 4.409546 10.645569l0 0c0 8.314697 -6.740387 15.055115 -15.055115 15.055115l0 0c-8.314697 0 -15.055115 -6.7404175 -15.055115 -15.055115z" fill-rule="evenodd"/><path fill="#000000" d="m427.1496 424.38324l-1.640625 0l0 -10.453125q-0.59375 0.5625 -1.5625 1.140625q-0.953125 0.5625 -1.71875 0.84375l0 -1.59375q1.375 -0.640625 2.40625 -1.5625q1.03125 -0.921875 1.453125 -1.78125l1.0625 0l0 13.40625zm4.203827 -6.59375q0 -2.359375 0.484375 -3.796875q0.484375 -1.453125 1.4375 -2.234375q0.96875 -0.78125 2.421875 -0.78125q1.078125 0 1.890625 0.4375q0.8125 0.421875 1.328125 1.25q0.53125 0.8125 0.828125 1.984375q0.3125 1.15625 0.3125 3.140625q0 2.359375 -0.484375 3.8125q-0.484375 1.4375 -1.453125 2.234375q-0.953125 0.78125 -2.421875 0.78125q-1.921875 0 -3.03125 -1.390625q-1.3125 -1.671875 -1.3125 -5.4375zm1.671875 0q0 3.296875 0.765625 4.390625q0.78125 1.078125 1.90625 1.078125q1.140625 0 1.90625 -1.09375q0.765625 -1.09375 0.765625 -4.375q0 -3.296875 -0.765625 -4.375q-0.765625 -1.078125 -1.921875 -1.078125q-1.125 0 -1.796875 0.953125q-0.859375 1.21875 -0.859375 4.5z" fill-rule="nonzero"/><path fill="#ff0000" d="m32.262466 319.0328l0 0c0 -8.314697 6.740406 -15.055115 15.055119 -15.055115l0 0c3.9928665 0 7.822193 1.5861511 10.6455765 4.409546c2.8233833 2.8233643 4.409542 6.65271 4.409542 10.645569l0 0c0 8.314728 -6.740406 15.055115 -15.055119 15.055115l0 0c-8.314713 0 -15.055119 -6.740387 -15.055119 -15.055115z" fill-rule="evenodd"/><path stroke="#ff0000" stroke-width="1.0" stroke-linejoin="round" stroke-linecap="butt" d="m32.262466 319.0328l0 0c0 -8.314697 6.740406 -15.055115 15.055119 -15.055115l0 0c3.9928665 0 7.822193 1.5861511 10.6455765 4.409546c2.8233833 2.8233643 4.409542 6.65271 4.409542 10.645569l0 0c0 8.314728 -6.740406 15.055115 -15.055119 15.055115l0 0c-8.314713 0 -15.055119 -6.740387 -15.055119 -15.055115z" fill-rule="evenodd"/><path fill="#000000" d="m51.410976 315.8747l-1.625 0.125q-0.21875 -0.96875 -0.625 -1.40625q-0.65625 -0.703125 -1.640625 -0.703125q-0.78125 0 -1.375 0.4375q-0.765625 0.5625 -1.21875 1.65625q-0.453125 1.078125 -0.46875 3.078125q0.59375 -0.890625 1.453125 -1.328125q0.859375 -0.4375 1.796875 -0.4375q1.640625 0 2.78125 1.203125q1.15625 1.203125 1.15625 3.109375q0 1.265625 -0.546875 2.34375q-0.53125 1.078125 -1.484375 1.65625q-0.9375 0.578125 -2.140625 0.578125q-2.0625 0 -3.359375 -1.5q-1.28125 -1.515625 -1.28125 -4.984375q0 -3.875 1.421875 -5.625q1.25 -1.53125 3.375 -1.53125q1.5625 0 2.5625 0.890625q1.015625 0.875 1.21875 2.4375zm-6.6875 5.75q0 0.84375 0.359375 1.625q0.359375 0.765625 1.0 1.171875q0.640625 0.40625 1.359375 0.40625q1.03125 0 1.78125 -0.828125q0.75 -0.84375 0.75 -2.28125q0 -1.390625 -0.734375 -2.1875q-0.734375 -0.796875 -1.859375 -0.796875q-1.109375 0 -1.890625 0.796875q-0.765625 0.796875 -0.765625 2.09375z" fill-rule="nonzero"/><path fill="#ff0000" d="m216.3412 319.04593l0 0c0 -8.314697 6.7404175 -15.055115 15.05513 -15.055115l0 0c3.992859 0 7.8221893 1.5861511 10.645569 4.409546c2.8233795 2.8233643 4.409546 6.65271 4.409546 10.645569l0 0c0 8.314728 -6.740402 15.055115 -15.055115 15.055115l0 0c-8.314713 0 -15.05513 -6.740387 -15.05513 -15.055115z" fill-rule="evenodd"/><path stroke="#ff0000" stroke-width="1.0" stroke-linejoin="round" stroke-linecap="butt" d="m216.3412 319.04593l0 0c0 -8.314697 6.7404175 -15.055115 15.05513 -15.055115l0 0c3.992859 0 7.8221893 1.5861511 10.645569 4.409546c2.8233795 2.8233643 4.409546 6.65271 4.409546 10.645569l0 0c0 8.314728 -6.740402 15.055115 -15.055115 15.055115l0 0c-8.314713 0 -15.05513 -6.740387 -15.05513 -15.055115z" fill-rule="evenodd"/><path fill="#000000" d="m227.09909 314.35657l0 -1.578125l8.640625 0l0 1.28125q-1.28125 1.359375 -2.53125 3.609375q-1.25 2.25 -1.9375 4.625q-0.484375 1.671875 -0.625 3.671875l-1.6875 0q0.03125 -1.578125 0.625 -3.8125q0.59375 -2.234375 1.6875 -4.296875q1.109375 -2.078125 2.359375 -3.5l-6.53125 0z" fill-rule="nonzero"/><path fill="#ff0000" d="m34.63517 418.63647l0 0c0 -8.314697 6.740406 -15.055115 15.055119 -15.055115l0 0c3.9928665 0 7.822193 1.5861511 10.6455765 4.409546c2.8233833 2.8233948 4.409542 6.65271 4.409542 10.645569l0 0c0 8.314728 -6.740406 15.055115 -15.055119 15.055115l0 0c-8.314713 0 -15.055119 -6.740387 -15.055119 -15.055115z" fill-rule="evenodd"/><path stroke="#ff0000" stroke-width="1.0" stroke-linejoin="round" stroke-linecap="butt" d="m34.63517 418.63647l0 0c0 -8.314697 6.740406 -15.055115 15.055119 -15.055115l0 0c3.9928665 0 7.822193 1.5861511 10.6455765 4.409546c2.8233833 2.8233948 4.409542 6.65271 4.409542 10.645569l0 0c0 8.314728 -6.740406 15.055115 -15.055119 15.055115l0 0c-8.314713 0 -15.055119 -6.740387 -15.055119 -15.055115z" fill-rule="evenodd"/><path fill="#000000" d="m47.799305 418.3221q-1.015625 -0.375 -1.515625 -1.0625q-0.484375 -0.703125 -0.484375 -1.671875q0 -1.453125 1.046875 -2.4375q1.046875 -1.0 2.78125 -1.0q1.75 0 2.8125 1.015625q1.078125 1.015625 1.078125 2.46875q0 0.9375 -0.5 1.625q-0.484375 0.6875 -1.46875 1.0625q1.21875 0.390625 1.859375 1.28125q0.65625 0.890625 0.65625 2.140625q0 1.703125 -1.21875 2.875q-1.21875 1.171875 -3.1875 1.171875q-1.984375 0 -3.203125 -1.171875q-1.203125 -1.171875 -1.203125 -2.921875q0 -1.3125 0.65625 -2.1875q0.671875 -0.875 1.890625 -1.1875zm-0.328125 -2.78125q0 0.9375 0.609375 1.546875q0.609375 0.59375 1.59375 0.59375q0.9375 0 1.546875 -0.59375q0.609375 -0.59375 0.609375 -1.453125q0 -0.90625 -0.625 -1.515625q-0.625 -0.625 -1.5625 -0.625q-0.9375 0 -1.5625 0.609375q-0.609375 0.59375 -0.609375 1.4375zm-0.53125 6.15625q0 0.703125 0.328125 1.359375q0.34375 0.65625 1.0 1.015625q0.65625 0.359375 1.40625 0.359375q1.171875 0 1.9375 -0.75q0.765625 -0.75 0.765625 -1.921875q0 -1.1875 -0.796875 -1.953125q-0.78125 -0.78125 -1.953125 -0.78125q-1.15625 0 -1.921875 0.765625q-0.765625 0.765625 -0.765625 1.90625z" fill-rule="nonzero"/><path fill="#ff0000" d="m216.3412 418.6299l0 0c0 -8.314697 6.7404175 -15.055115 15.05513 -15.055115l0 0c3.992859 0 7.8221893 1.5861511 10.645569 4.409546c2.8233795 2.8233948 4.409546 6.65271 4.409546 10.645569l0 0c0 8.314728 -6.740402 15.055115 -15.055115 15.055115l0 0c-8.314713 0 -15.05513 -6.740387 -15.05513 -15.055115z" fill-rule="evenodd"/><path stroke="#ff0000" stroke-width="1.0" stroke-linejoin="round" stroke-linecap="butt" d="m216.3412 418.6299l0 0c0 -8.314697 6.7404175 -15.055115 15.05513 -15.055115l0 0c3.992859 0 7.8221893 1.5861511 10.645569 4.409546c2.8233795 2.8233948 4.409546 6.65271 4.409546 10.645569l0 0c0 8.314728 -6.740402 15.055115 -15.055115 15.055115l0 0c-8.314713 0 -15.05513 -6.740387 -15.05513 -15.055115z" fill-rule="evenodd"/><path fill="#000000" d="m227.22409 422.45618l1.578125 -0.140625q0.203125 1.109375 0.765625 1.609375q0.5625 0.5 1.453125 0.5q0.75 0 1.3125 -0.34375q0.578125 -0.34375 0.9375 -0.921875q0.375 -0.578125 0.609375 -1.5625q0.25 -0.984375 0.25 -2.0q0 -0.109375 0 -0.328125q-0.5 0.78125 -1.359375 1.265625q-0.84375 0.484375 -1.828125 0.484375q-1.671875 0 -2.8125 -1.203125q-1.140625 -1.203125 -1.140625 -3.171875q0 -2.03125 1.1875 -3.265625q1.203125 -1.234375 3.0 -1.234375q1.3125 0 2.390625 0.703125q1.078125 0.703125 1.640625 2.0q0.5625 1.296875 0.5625 3.75q0 2.5625 -0.5625 4.078125q-0.5625 1.515625 -1.65625 2.3125q-1.09375 0.796875 -2.578125 0.796875q-1.5625 0 -2.5625 -0.875q-0.984375 -0.875 -1.1875 -2.453125zm6.71875 -5.890625q0 -1.40625 -0.75 -2.234375q-0.75 -0.828125 -1.8125 -0.828125q-1.09375 0 -1.90625 0.890625q-0.8125 0.890625 -0.8125 2.3125q0 1.28125 0.765625 2.078125q0.78125 0.796875 1.90625 0.796875q1.140625 0 1.875 -0.796875q0.734375 -0.796875 0.734375 -2.21875z" fill-rule="nonzero"/></g></svg>