<svg version="1.1" viewBox="0.0 0.0 371.997375328084 365.7007874015748" fill="none" stroke="none" stroke-linecap="square" stroke-miterlimit="10" xmlns:xlink="http://www.w3.org/1999/xlink" xmlns="http://www.w3.org/2000/svg"><clipPath id="p.0"><path d="m0 0l371.99738 0l0 365.70078l-371.99738 0l0 -365.70078z" clip-rule="nonzero"/></clipPath><g clip-path="url(#p.0)"><path fill="#000000" fill-opacity="0.0" d="m0 0l371.99738 0l0 365.70078l-371.99738 0z" fill-rule="evenodd"/><path fill="#ff0000" d="m17.939632 28.031496l0 0c0 -8.314713 6.740406 -15.055119 15.055119 -15.055119l0 0c3.9928665 0 7.822193 1.5861597 10.6455765 4.409542c2.8233833 2.8233833 4.409542 6.65271 4.409542 10.6455765l0 0c0 8.314711 -6.740406 15.055117 -15.055119 15.055117l0 0c-8.314713 0 -15.055119 -6.740406 -15.055119 -15.055117z" fill-rule="evenodd"/><path stroke="#ff0000" stroke-width="1.0" stroke-linejoin="round" stroke-linecap="butt" d="m17.939632 28.031496l0 0c0 -8.314713 6.740406 -15.055119 15.055119 -15.055119l0 0c3.9928665 0 7.822193 1.5861597 10.6455765 4.409542c2.8233833 2.8233833 4.409542 6.65271 4.409542 10.6455765l0 0c0 8.314711 -6.740406 15.055117 -15.055119 15.055117l0 0c-8.314713 0 -15.055119 -6.740406 -15.055119 -15.055117z" fill-rule="evenodd"/><path fill="#000000" d="m34.760017 34.951496l-1.640625 0l0 -10.453127q-0.59375 0.5625 -1.5625 1.140625q-0.953125 0.5625 -1.71875 0.84375l0 -1.59375q1.375 -0.640625 2.40625 -1.5625q1.03125 -0.921875 1.453125 -1.78125l1.0625 0l0 13.406252z" fill-rule="nonzero"/><path fill="#000000" fill-opacity="0.0" d="m39.230877 131.29405l46.330708 -41.51181" fill-rule="evenodd"/><path stroke="#000000" stroke-width="4.0" stroke-linejoin="round" stroke-linecap="butt" d="m39.23088 131.29405l28.456047 -25.496307" fill-rule="evenodd"/><path fill="#000000" stroke="#000000" stroke-width="4.0" stroke-linecap="butt" d="m72.09581 110.718445l9.110611 -17.03402l-17.928383 7.192627z" fill-rule="evenodd"/><path fill="#000000" fill-opacity="0.0" d="m98.74269 180.49747l30.582672 -30.362198" fill-rule="evenodd"/><path stroke="#000000" stroke-width="4.0" stroke-linejoin="round" stroke-linecap="butt" d="m98.74269 180.49748l13.550835 -13.4531555" fill-rule="evenodd"/><path fill="#000000" stroke="#000000" stroke-width="4.0" stroke-linecap="butt" d="m116.9484 171.733l8.22715 -17.477844l-17.536903 8.100494z" fill-rule="evenodd"/><path fill="#000000" fill-opacity="0.0" d="m155.0105 302.25067l0 -61.66931" fill-rule="evenodd"/><path stroke="#000000" stroke-width="4.0" stroke-linejoin="round" stroke-linecap="butt" d="m155.0105 278.25067l0 -13.669312" fill-rule="evenodd"/><path fill="#000000" stroke="#000000" stroke-width="4.0" stroke-linecap="butt" d="m148.40356 278.25067l6.6069336 18.152374l6.6069336 -18.152374z" fill-rule="evenodd"/><path fill="#000000" stroke="#000000" stroke-width="4.0" stroke-linecap="butt" d="m161.61743 264.58136l-6.6069336 -18.15239l-6.6069336 18.15239z" fill-rule="evenodd"/><path fill="#000000" fill-opacity="0.0" d="m115.67191 89.7979l119.1811 0" fill-rule="evenodd"/><path stroke="#000000" stroke-width="4.0" stroke-linejoin="round" stroke-linecap="butt" d="m115.67191 89.7979l95.1811 0" fill-rule="evenodd"/><path fill="#000000" stroke="#000000" stroke-width="4.0" stroke-linecap="butt" d="m210.85301 96.40483l18.15239 -6.6069336l-18.15239 -6.606926z" fill-rule="evenodd"/><path fill="#000000" fill-opacity="0.0" d="m89.97122 79.15232l-46.330708 -40.47244" fill-rule="evenodd"/><path stroke="#000000" stroke-width="4.0" stroke-linejoin="round" stroke-linecap="butt" d="m71.89645 63.363003l-28.255936 -24.68312" fill-rule="evenodd"/><path fill="#000000" stroke="#000000" stroke-width="4.0" stroke-linecap="butt" d="m67.54983 68.33879l18.017471 6.966461l-9.324234 -16.918026z" fill-rule="evenodd"/><path fill="#000000" fill-opacity="0.0" d="m133.71925 139.49353l-22.456696 -39.055115" fill-rule="evenodd"/><path stroke="#000000" stroke-width="4.0" stroke-linejoin="round" stroke-linecap="butt" d="m133.71925 139.49353l-10.493385 -18.249367" fill-rule="evenodd"/><path fill="#000000" stroke="#000000" stroke-width="4.0" stroke-linecap="butt" d="m128.95346 117.9508l-14.776039 -12.443054l3.3208542 19.029785z" fill-rule="evenodd"/><path fill="#000000" fill-opacity="0.0" d="m155.0105 210.48032l-10.645676 -45.291336" fill-rule="evenodd"/><path stroke="#000000" stroke-width="4.0" stroke-linejoin="round" stroke-linecap="butt" d="m151.87386 197.13564l-7.509033 -31.946655" fill-rule="evenodd"/><path fill="#000000" stroke="#000000" stroke-width="4.0" stroke-linecap="butt" d="m151.87386 197.13565l-5.4082794 -3.3497162l7.206909 11.001907l1.5510864 -13.060471z" fill-rule="evenodd"/><path fill="#000000" fill-opacity="0.0" d="m170.06561 225.53543l64.7874 0" fill-rule="evenodd"/><path stroke="#000000" stroke-width="4.0" stroke-linejoin="round" stroke-linecap="butt" d="m194.06561 225.53543l16.7874 0" fill-rule="evenodd"/><path fill="#000000" stroke="#000000" stroke-width="4.0" stroke-linecap="butt" d="m194.06561 218.9285l-18.15239 6.6069336l18.15239 6.6069336z" fill-rule="evenodd"/><path fill="#000000" stroke="#000000" stroke-width="4.0" stroke-linecap="butt" d="m210.85301 232.14236l18.15239 -6.6069336l-18.15239 -6.6069336z" fill-rule="evenodd"/><path fill="#000000" fill-opacity="0.0" d="m260.5406 236.1797l53.417328 40.377945" fill-rule="evenodd"/><path stroke="#000000" stroke-width="4.0" stroke-linejoin="round" stroke-linecap="butt" d="m279.68625 250.65184l15.125977 11.43364" fill-rule="evenodd"/><path fill="#000000" stroke="#000000" stroke-width="4.0" stroke-linecap="butt" d="m283.6703 245.38124l-18.464844 -5.675415l10.496796 16.216599z" fill-rule="evenodd"/><path fill="#000000" stroke="#000000" stroke-width="4.0" stroke-linecap="butt" d="m290.82822 267.35608l18.464844 5.675415l-10.496826 -16.216583z" fill-rule="evenodd"/><path fill="#000000" fill-opacity="0.0" d="m249.90814 104.85171l0 105.637794" fill-rule="evenodd"/><path stroke="#000000" stroke-width="4.0" stroke-linejoin="round" stroke-linecap="butt" d="m249.90814 128.8517l0 81.6378" fill-rule="evenodd"/><path fill="#000000" stroke="#000000" stroke-width="4.0" stroke-linecap="butt" d="m256.51508 128.8517l-6.6069336 -18.152382l-6.6069336 18.152382z" fill-rule="evenodd"/><path fill="#000000" fill-opacity="0.0" d="m306.40945 76.94751l-41.448822 12.850388" fill-rule="evenodd"/><path stroke="#000000" stroke-width="4.0" stroke-linejoin="round" stroke-linecap="butt" d="m283.48587 84.05451l-18.525238 5.7433853" fill-rule="evenodd"/><path fill="#000000" stroke="#000000" stroke-width="4.0" stroke-linecap="butt" d="m285.44235 90.36511l15.381744 -11.685982l-19.294708 -0.9352188z" fill-rule="evenodd"/><path fill="#ff0000" d="m306.40945 76.94751l0 0c0 -8.314713 6.740387 -15.055122 15.055115 -15.055122l0 0c3.992859 0 7.8222046 1.5861626 10.645569 4.409546c2.8233948 2.8233795 4.409546 6.65271 4.409546 10.6455765l0 0c0 8.314713 -6.7404175 15.055115 -15.055115 15.055115l0 0c-8.314728 0 -15.055115 -6.740402 -15.055115 -15.055115z" fill-rule="evenodd"/><path stroke="#ff0000" stroke-width="1.0" stroke-linejoin="round" stroke-linecap="butt" d="m306.40945 76.94751l0 0c0 -8.314713 6.740387 -15.055122 15.055115 -15.055122l0 0c3.992859 0 7.8222046 1.5861626 10.645569 4.409546c2.8233948 2.8233795 4.409546 6.65271 4.409546 10.6455765l0 0c0 8.314713 -6.7404175 15.055115 -15.055115 15.055115l0 0c-8.314728 0 -15.055115 -6.740402 -15.055115 -15.055115z" fill-rule="evenodd"/><path fill="#000000" d="m325.66733 82.28938l0 1.578125l-8.828125 0q-0.015625 -0.59375 0.1875 -1.140625q0.34375 -0.90625 1.078125 -1.78125q0.75 -0.875 2.15625 -2.015625q2.171875 -1.78125 2.9375 -2.828125q0.765625 -1.046875 0.765625 -1.96875q0 -0.984375 -0.703125 -1.640625q-0.6875 -0.671875 -1.8125 -0.671875q-1.1875 0 -1.90625 0.71875q-0.703125 0.703125 -0.703125 1.953125l-1.6875 -0.171875q0.171875 -1.890625 1.296875 -2.875q1.140625 -0.984375 3.03125 -0.984375q1.921875 0 3.046875 1.0625q1.125 1.0625 1.125 2.640625q0 0.796875 -0.328125 1.578125q-0.328125 0.78125 -1.09375 1.640625q-0.75 0.84375 -2.53125 2.34375q-1.46875 1.234375 -1.890625 1.6875q-0.421875 0.4375 -0.6875 0.875l6.546875 0z" fill-rule="nonzero"/><path fill="#ff0000" d="m13.530184 141.93964l0 0c0 -8.314713 6.740406 -15.055122 15.055119 -15.055122l0 0c3.9928646 0 7.822195 1.5861588 10.645575 4.4095383c2.8233833 2.8233795 4.409542 6.65271 4.409542 10.645584l0 0c0 8.314713 -6.740406 15.055115 -15.055117 15.055115l0 0c-8.314713 0 -15.055119 -6.740402 -15.055119 -15.055115z" fill-rule="evenodd"/><path stroke="#ff0000" stroke-width="1.0" stroke-linejoin="round" stroke-linecap="butt" d="m13.530184 141.93964l0 0c0 -8.314713 6.740406 -15.055122 15.055119 -15.055122l0 0c3.9928646 0 7.822195 1.5861588 10.645575 4.4095383c2.8233833 2.8233795 4.409542 6.65271 4.409542 10.645584l0 0c0 8.314713 -6.740406 15.055115 -15.055117 15.055115l0 0c-8.314713 0 -15.055119 -6.740402 -15.055119 -15.055115z" fill-rule="evenodd"/><path fill="#000000" d="m24.178694 145.32838l1.640625 -0.21875q0.28125 1.40625 0.953125 2.015625q0.6875 0.609375 1.65625 0.609375q1.15625 0 1.953125 -0.796875q0.796875 -0.796875 0.796875 -1.984375q0 -1.125 -0.734375 -1.859375q-0.734375 -0.734375 -1.875 -0.734375q-0.46875 0 -1.15625 0.171875l0.1875 -1.4375q0.15625 0.015625 0.265625 0.015625q1.046875 0 1.875 -0.546875q0.84375 -0.546875 0.84375 -1.671875q0 -0.90625 -0.609375 -1.5q-0.609375 -0.59375 -1.578125 -0.59375q-0.953125 0 -1.59375 0.609375q-0.640625 0.59375 -0.8125 1.796875l-1.640625 -0.296875q0.296875 -1.640625 1.359375 -2.546875q1.0625 -0.90625 2.65625 -0.90625q1.09375 0 2.0 0.46875q0.921875 0.46875 1.40625 1.28125q0.4999981 0.8125 0.4999981 1.71875q0 0.859375 -0.4687481 1.578125q-0.46875 0.703125 -1.375 1.125q1.1875 0.28125 1.8437481 1.140625q0.65625 0.859375 0.65625 2.15625q0 1.734375 -1.2812481 2.953125q-1.265625 1.21875 -3.21875 1.21875q-1.765625 0 -2.921875 -1.046875q-1.15625 -1.046875 -1.328125 -2.71875z" fill-rule="nonzero"/><path fill="#ff0000" d="m85.561676 89.7979l0 0c0 -8.314713 6.74041 -15.055115 15.055122 -15.055115l0 0c3.9928665 0 7.822197 1.5861588 10.6455765 4.4095383c2.8233795 2.8233871 4.4095383 6.6527176 4.4095383 10.6455765l0 0c0 8.314713 -6.740402 15.055122 -15.055115 15.055122l0 0c-8.314713 0 -15.055122 -6.74041 -15.055122 -15.055122z" fill-rule="evenodd"/><path stroke="#ff0000" stroke-width="1.0" stroke-linejoin="round" stroke-linecap="butt" d="m85.561676 89.7979l0 0c0 -8.314713 6.74041 -15.055115 15.055122 -15.055115l0 0c3.9928665 0 7.822197 1.5861588 10.6455765 4.4095383c2.8233795 2.8233871 4.4095383 6.6527176 4.4095383 10.6455765l0 0c0 8.314713 -6.740402 15.055122 -15.055115 15.055122l0 0c-8.314713 0 -15.055122 -6.74041 -15.055122 -15.055122z" fill-rule="evenodd"/><path fill="#000000" d="m101.46019 96.717896l0 -3.203125l-5.796875 0l0 -1.5l6.09375 -8.65625l1.34375 0l0 8.65625l1.796875 0l0 1.5l-1.796875 0l0 3.203125l-1.640625 0zm0 -4.703125l0 -6.015625l-4.1875 6.015625l4.1875 0z" fill-rule="nonzero"/><path fill="#ff0000" d="m234.85301 89.796585l0 0c0 -8.314713 6.7404175 -15.055115 15.05513 -15.055115l0 0c3.992859 0 7.822174 1.5861588 10.645569 4.4095383c2.8233948 2.8233871 4.409546 6.65271 4.409546 10.6455765l0 0c0 8.314713 -6.7404175 15.055122 -15.055115 15.055122l0 0c-8.314713 0 -15.05513 -6.74041 -15.05513 -15.055122z" fill-rule="evenodd"/><path stroke="#ff0000" stroke-width="1.0" stroke-linejoin="round" stroke-linecap="butt" d="m234.85301 89.796585l0 0c0 -8.314713 6.7404175 -15.055115 15.05513 -15.055115l0 0c3.992859 0 7.822174 1.5861588 10.645569 4.4095383c2.8233948 2.8233871 4.409546 6.65271 4.409546 10.6455765l0 0c0 8.314713 -6.7404175 15.055122 -15.055115 15.055122l0 0c-8.314713 0 -15.05513 -6.74041 -15.05513 -15.055122z" fill-rule="evenodd"/><path fill="#000000" d="m245.50153 93.21658l1.71875 -0.140625q0.1875 1.25 0.875 1.890625q0.703125 0.625 1.6875 0.625q1.1875 0 2.0 -0.890625q0.828125 -0.890625 0.828125 -2.359375q0 -1.40625 -0.796875 -2.21875q-0.78125 -0.8125 -2.0625 -0.8125q-0.78125 0 -1.421875 0.359375q-0.640625 0.359375 -1.0 0.9375l-1.546875 -0.203125l1.296875 -6.859375l6.640625 0l0 1.5625l-5.328125 0l-0.71875 3.59375q1.203125 -0.84375 2.515625 -0.84375q1.75 0 2.953125 1.21875q1.203125 1.203125 1.203125 3.109375q0 1.8125 -1.046875 3.140625q-1.296875 1.625 -3.515625 1.625q-1.8125 0 -2.96875 -1.015625q-1.15625 -1.03125 -1.3125 -2.71875z" fill-rule="nonzero"/><path fill="#ff0000" d="m309.54855 287.19553l0 0c0 -8.314697 6.7404175 -15.055115 15.055115 -15.055115l0 0c3.992859 0 7.8222046 1.5861816 10.645569 4.409546c2.8233948 2.8233948 4.409546 6.65271 4.409546 10.645569l0 0c0 8.314728 -6.740387 15.055145 -15.055115 15.055145l0 0c-8.314697 0 -15.055115 -6.7404175 -15.055115 -15.055145z" fill-rule="evenodd"/><path stroke="#ff0000" stroke-width="1.0" stroke-linejoin="round" stroke-linecap="butt" d="m309.54855 287.19553l0 0c0 -8.314697 6.7404175 -15.055115 15.055115 -15.055115l0 0c3.992859 0 7.8222046 1.5861816 10.645569 4.409546c2.8233948 2.8233948 4.409546 6.65271 4.409546 10.645569l0 0c0 8.314728 -6.740387 15.055145 -15.055115 15.055145l0 0c-8.314697 0 -15.055115 -6.7404175 -15.055115 -15.055145z" fill-rule="evenodd"/><path fill="#000000" d="m321.87378 294.11554l-1.640625 0l0 -10.453125q-0.59375 0.5625 -1.5625 1.140625q-0.953125 0.5625 -1.71875 0.84375l0 -1.59375q1.375 -0.640625 2.40625 -1.5625q1.03125 -0.921875 1.453125 -1.78125l1.0625 0l0 13.40625zm8.990295 0l-1.640625 0l0 -10.453125q-0.59375 0.5625 -1.5625 1.140625q-0.953125 0.5625 -1.71875 0.84375l0 -1.59375q1.375 -0.640625 2.40625 -1.5625q1.03125 -0.921875 1.453125 -1.78125l1.0625 0l0 13.40625z" fill-rule="nonzero"/><path fill="#ff0000" d="m234.83989 225.53412l0 0c0 -8.314713 6.7404175 -15.055115 15.05513 -15.055115l0 0c3.992859 0 7.822174 1.5861511 10.645569 4.409546c2.8233948 2.8233795 4.409546 6.65271 4.409546 10.645569l0 0c0 8.314713 -6.7404175 15.055115 -15.055115 15.055115l0 0c-8.314713 0 -15.05513 -6.740402 -15.05513 -15.055115z" fill-rule="evenodd"/><path stroke="#ff0000" stroke-width="1.0" stroke-linejoin="round" stroke-linecap="butt" d="m234.83989 225.53412l0 0c0 -8.314713 6.7404175 -15.055115 15.05513 -15.055115l0 0c3.992859 0 7.822174 1.5861511 10.645569 4.409546c2.8233948 2.8233795 4.409546 6.65271 4.409546 10.645569l0 0c0 8.314713 -6.7404175 15.055115 -15.055115 15.055115l0 0c-8.314713 0 -15.05513 -6.740402 -15.05513 -15.055115z" fill-rule="evenodd"/><path fill="#000000" d="m246.47243 232.45412l-1.640625 0l0 -10.453125q-0.59375 0.5625 -1.5625 1.140625q-0.953125 0.5625 -1.71875 0.84375l0 -1.59375q1.375 -0.640625 2.40625 -1.5625q1.03125 -0.921875 1.453125 -1.78125l1.0625 0l0 13.40625zm4.203842 -6.59375q0 -2.359375 0.484375 -3.796875q0.484375 -1.453125 1.4375 -2.234375q0.96875 -0.78125 2.421875 -0.78125q1.078125 0 1.890625 0.4375q0.8125 0.421875 1.328125 1.25q0.53125 0.8125 0.828125 1.984375q0.3125 1.15625 0.3125 3.140625q0 2.359375 -0.484375 3.8125q-0.484375 1.4375 -1.453125 2.234375q-0.953125 0.78125 -2.421875 0.78125q-1.921875 0 -3.03125 -1.390625q-1.3125 -1.671875 -1.3125 -5.4375zm1.671875 0q0 3.296875 0.765625 4.390625q0.78125 1.078125 1.90625 1.078125q1.140625 0 1.90625 -1.09375q0.765625 -1.09375 0.765625 -4.375q0 -3.296875 -0.765625 -4.375q-0.765625 -1.078125 -1.921875 -1.078125q-1.125 0 -1.796875 0.953125q-0.859375 1.21875 -0.859375 4.5z" fill-rule="nonzero"/><path fill="#ff0000" d="m73.04199 191.14305l0 0c0 -8.314713 6.74041 -15.05513 15.055122 -15.05513l0 0c3.9928665 0 7.8221893 1.5861664 10.6455765 4.409546c2.8233795 2.8233795 4.4095383 6.65271 4.4095383 10.645584l0 0c0 8.314713 -6.740402 15.055115 -15.055115 15.055115l0 0c-8.314713 0 -15.055122 -6.740402 -15.055122 -15.055115z" fill-rule="evenodd"/><path stroke="#ff0000" stroke-width="1.0" stroke-linejoin="round" stroke-linecap="butt" d="m73.04199 191.14305l0 0c0 -8.314713 6.74041 -15.05513 15.055122 -15.05513l0 0c3.9928665 0 7.8221893 1.5861664 10.6455765 4.409546c2.8233795 2.8233795 4.4095383 6.65271 4.4095383 10.645584l0 0c0 8.314713 -6.740402 15.055115 -15.055115 15.055115l0 0c-8.314713 0 -15.055122 -6.740402 -15.055122 -15.055115z" fill-rule="evenodd"/><path fill="#000000" d="m92.190506 187.98492l-1.625 0.125q-0.21875 -0.96875 -0.625 -1.40625q-0.65625 -0.703125 -1.640625 -0.703125q-0.78125 0 -1.375 0.4375q-0.765625 0.5625 -1.21875 1.65625q-0.453125 1.078125 -0.46875 3.078125q0.59375 -0.890625 1.453125 -1.328125q0.859375 -0.4375 1.796875 -0.4375q1.640625 0 2.78125 1.203125q1.15625 1.203125 1.15625 3.109375q0 1.265625 -0.546875 2.34375q-0.53125 1.078125 -1.484375 1.65625q-0.9375 0.578125 -2.140625 0.578125q-2.0625 0 -3.359375 -1.5q-1.28125 -1.515625 -1.28125 -4.984375q0 -3.875 1.421875 -5.625q1.25 -1.53125 3.375 -1.53125q1.5625 0 2.5625 0.890625q1.015625 0.875 1.21875 2.4375zm-6.6875 5.75q0 0.84375 0.359375 1.625q0.359375 0.765625 1.0 1.171875q0.640625 0.40625 1.359375 0.40625q1.03125 0 1.78125 -0.828125q0.75 -0.84375 0.75 -2.28125q0 -1.390625 -0.734375 -2.1875q-0.734375 -0.796875 -1.859375 -0.796875q-1.109375 0 -1.890625 0.796875q-0.765625 0.796875 -0.765625 2.09375z" fill-rule="nonzero"/><path fill="#ff0000" d="m129.30971 150.13911l0 0c0 -8.314713 6.740402 -15.05513 15.055115 -15.05513l0 0c3.9928741 0 7.8222046 1.5861664 10.645584 4.409546c2.8233795 2.8233795 4.409546 6.65271 4.409546 10.645584l0 0c0 8.314713 -6.7404175 15.055115 -15.05513 15.055115l0 0c-8.314713 0 -15.055115 -6.740402 -15.055115 -15.055115z" fill-rule="evenodd"/><path stroke="#ff0000" stroke-width="1.0" stroke-linejoin="round" stroke-linecap="butt" d="m129.30971 150.13911l0 0c0 -8.314713 6.740402 -15.05513 15.055115 -15.05513l0 0c3.9928741 0 7.8222046 1.5861664 10.645584 4.409546c2.8233795 2.8233795 4.409546 6.65271 4.409546 10.645584l0 0c0 8.314713 -6.7404175 15.055115 -15.05513 15.055115l0 0c-8.314713 0 -15.055115 -6.740402 -15.055115 -15.055115z" fill-rule="evenodd"/><path fill="#000000" d="m140.0676 145.44974l0 -1.578125l8.640625 0l0 1.28125q-1.28125 1.359375 -2.53125 3.609375q-1.25 2.25 -1.9375 4.625q-0.484375 1.671875 -0.625 3.671875l-1.6875 0q0.03125 -1.578125 0.625 -3.8125q0.59375 -2.234375 1.6875 -4.296875q1.109375 -2.078125 2.359375 -3.5l-6.53125 0z" fill-rule="nonzero"/><path fill="#ff0000" d="m139.95538 317.3058l0 0c0 -8.314728 6.740402 -15.055115 15.055115 -15.055115l0 0c3.992859 0 7.8221893 1.5861511 10.645584 4.4095154c2.8233795 2.8233948 4.4095306 6.65271 4.4095306 10.645599l0 0c0 8.314697 -6.740402 15.055115 -15.055115 15.055115l0 0c-8.314713 0 -15.055115 -6.7404175 -15.055115 -15.055115z" fill-rule="evenodd"/><path stroke="#ff0000" stroke-width="1.0" stroke-linejoin="round" stroke-linecap="butt" d="m139.95538 317.3058l0 0c0 -8.314728 6.740402 -15.055115 15.055115 -15.055115l0 0c3.992859 0 7.8221893 1.5861511 10.645584 4.4095154c2.8233795 2.8233948 4.4095306 6.65271 4.4095306 10.645599l0 0c0 8.314697 -6.740402 15.055115 -15.055115 15.055115l0 0c-8.314713 0 -15.055115 -6.7404175 -15.055115 -15.055115z" fill-rule="evenodd"/><path fill="#000000" d="m153.11952 316.9914q-1.015625 -0.375 -1.515625 -1.0625q-0.484375 -0.703125 -0.484375 -1.671875q0 -1.453125 1.046875 -2.4375q1.046875 -1.0 2.78125 -1.0q1.75 0 2.8125 1.015625q1.078125 1.015625 1.078125 2.46875q0 0.9375 -0.5 1.625q-0.484375 0.6875 -1.46875 1.0625q1.21875 0.390625 1.859375 1.28125q0.65625 0.890625 0.65625 2.140625q0 1.703125 -1.21875 2.875q-1.21875 1.171875 -3.1875 1.171875q-1.984375 0 -3.203125 -1.171875q-1.203125 -1.171875 -1.203125 -2.921875q0 -1.3125 0.65625 -2.1875q0.671875 -0.875 1.890625 -1.1875zm-0.328125 -2.78125q0 0.9375 0.609375 1.546875q0.609375 0.59375 1.59375 0.59375q0.9375 0 1.546875 -0.59375q0.609375 -0.59375 0.609375 -1.453125q0 -0.90625 -0.625 -1.515625q-0.625 -0.625 -1.5625 -0.625q-0.9375 0 -1.5625 0.609375q-0.609375 0.59375 -0.609375 1.4375zm-0.53125 6.15625q0 0.703125 0.328125 1.359375q0.34375 0.65625 1.0 1.015625q0.65625 0.359375 1.40625 0.359375q1.171875 0 1.9375 -0.75q0.765625 -0.75 0.765625 -1.921875q0 -1.1875 -0.796875 -1.953125q-0.78125 -0.78125 -1.953125 -0.78125q-1.15625 0 -1.921875 0.765625q-0.765625 0.765625 -0.765625 1.90625z" fill-rule="nonzero"/><path fill="#ff0000" d="m139.95538 225.53543l0 0c0 -8.314713 6.740402 -15.055115 15.055115 -15.055115l0 0c3.992859 0 7.8221893 1.5861511 10.645584 4.409546c2.8233795 2.8233795 4.4095306 6.65271 4.4095306 10.645569l0 0c0 8.314713 -6.740402 15.055115 -15.055115 15.055115l0 0c-8.314713 0 -15.055115 -6.740402 -15.055115 -15.055115z" fill-rule="evenodd"/><path stroke="#ff0000" stroke-width="1.0" stroke-linejoin="round" stroke-linecap="butt" d="m139.95538 225.53543l0 0c0 -8.314713 6.740402 -15.055115 15.055115 -15.055115l0 0c3.992859 0 7.8221893 1.5861511 10.645584 4.409546c2.8233795 2.8233795 4.4095306 6.65271 4.4095306 10.645569l0 0c0 8.314713 -6.740402 15.055115 -15.055115 15.055115l0 0c-8.314713 0 -15.055115 -6.740402 -15.055115 -15.055115z" fill-rule="evenodd"/><path fill="#000000" d="m150.83827 229.36168l1.578125 -0.140625q0.203125 1.109375 0.765625 1.609375q0.5625 0.5 1.453125 0.5q0.75 0 1.3125 -0.34375q0.578125 -0.34375 0.9375 -0.921875q0.375 -0.578125 0.609375 -1.5625q0.25 -0.984375 0.25 -2.0q0 -0.109375 0 -0.328125q-0.5 0.78125 -1.359375 1.265625q-0.84375 0.484375 -1.828125 0.484375q-1.671875 0 -2.8125 -1.203125q-1.140625 -1.203125 -1.140625 -3.171875q0 -2.03125 1.1875 -3.265625q1.203125 -1.234375 3.0 -1.234375q1.3125 0 2.390625 0.703125q1.078125 0.703125 1.640625 2.0q0.5625 1.296875 0.5625 3.75q0 2.5625 -0.5625 4.078125q-0.5625 1.515625 -1.65625 2.3125q-1.09375 0.796875 -2.578125 0.796875q-1.5625 0 -2.5625 -0.875q-0.984375 -0.875 -1.1875 -2.453125zm6.71875 -5.890625q0 -1.40625 -0.75 -2.234375q-0.75 -0.828125 -1.8125 -0.828125q-1.09375 0 -1.90625 0.890625q-0.8125 0.890625 -0.8125 2.3125q0 1.28125 0.765625 2.078125q0.78125 0.796875 1.90625 0.796875q1.140625 0 1.875 -0.796875q0.734375 -0.796875 0.734375 -2.21875z" fill-rule="nonzero"/></g></svg>